<?xml version="1.0" encoding="utf-8"?>
<!-- Generator: Adobe Illustrator 25.2.1, SVG Export Plug-In . SVG Version: 6.00 Build 0)  -->
<svg version="1.1" id="Camada_1" xmlns="http://www.w3.org/2000/svg" xmlns:xlink="http://www.w3.org/1999/xlink" x="0px" y="0px"
	 viewBox="0 0 393.4 401.5" style="enable-background:new 0 0 393.4 401.5;" xml:space="preserve">
<style type="text/css">
	.st0{fill:#42210B;}
	.st1{fill:url(#SVGID_1_);}
	.st2{fill:url(#SVGID_2_);}
	.st3{fill:url(#SVGID_3_);}
	.st4{fill:#FFCF83;}
	.st5{fill:#B7724B;}
	.st6{fill:url(#SVGID_4_);}
	.st7{fill:url(#SVGID_5_);}
	.st8{fill:url(#SVGID_6_);}
	.st9{fill:url(#SVGID_7_);}
	.st10{fill:url(#SVGID_8_);}
	.st11{fill:url(#SVGID_9_);}
</style>
<g id="menu_x5F_button">
	<g id="button_13_">
		<ellipse class="st0" cx="196.7" cy="201.6" rx="196.7" ry="199.9"/>
		<linearGradient id="SVGID_1_" gradientUnits="userSpaceOnUse" x1="196.6916" y1="371.4979" x2="196.6916" y2="4.8505">
			<stop  offset="0" style="stop-color:#4E2A21"/>
			<stop  offset="0.2304" style="stop-color:#522D22"/>
			<stop  offset="0.4427" style="stop-color:#5D3527"/>
			<stop  offset="0.6478" style="stop-color:#6F422E"/>
			<stop  offset="0.8472" style="stop-color:#8A5537"/>
			<stop  offset="1" style="stop-color:#A36841"/>
		</linearGradient>
		<circle class="st1" cx="196.7" cy="188.2" r="183.3"/>
		<linearGradient id="SVGID_2_" gradientUnits="userSpaceOnUse" x1="196.6915" y1="376.3484" x2="196.6915" y2="-9.094947e-13">
			<stop  offset="0" style="stop-color:#63433B"/>
			<stop  offset="0.5045" style="stop-color:#A36841"/>
			<stop  offset="1" style="stop-color:#FFC255"/>
		</linearGradient>
		<path class="st2" d="M307.7,219.5l75.1-3.5c1.3-9.1,2.1-18.3,2.1-27.8c0-13.2-1.4-26.2-4-38.6l-84-8.8l80.2-6.3
			c-9.1-30.7-25.9-58.2-48.1-80.1l-141.3-12h128C283.2,15.9,241.8,0,196.7,0C111.4,0,39.4,56.8,16.3,134.6l90.7,7.7l-94.5,7.6
			c-2.6,12.4-3.9,25.2-3.9,38.3c0,9.6,0.7,19.1,2.1,28.4l48.1,5.9l-44.4,12.2c10.2,40.4,33.6,75.5,65.1,100.7l16.7-13.5l-3.6,23.1
			c6.4,4.3,13.1,8.1,20.1,11.6l14-19v25.3c21.7,8.7,45.3,13.5,70,13.5c33.4,0,64.7-8.7,91.9-24l-4.1-22.7l15.4,15.8
			c39.8-26.2,69-67,80-114.9L307.7,219.5z"/>
		<linearGradient id="SVGID_3_" gradientUnits="userSpaceOnUse" x1="196.6915" y1="376.3484" x2="196.6915" y2="-9.094947e-13">
			<stop  offset="0" style="stop-color:#63433B"/>
			<stop  offset="0.5045" style="stop-color:#A36841"/>
			<stop  offset="1" style="stop-color:#FFC255"/>
		</linearGradient>
		<path class="st3" d="M307.7,219.5l75.1-3.5c1.3-9.1,2.1-18.3,2.1-27.8c0-13.2-1.4-26.2-4-38.6l-84-8.8l80.2-6.3
			c-9.1-30.7-25.9-58.2-48.1-80.1l-141.3-12h128C283.2,15.9,241.8,0,196.7,0C111.4,0,39.4,56.8,16.3,134.6l90.7,7.7l-94.5,7.6
			c-2.6,12.4-3.9,25.2-3.9,38.3c0,9.6,0.7,19.1,2.1,28.4l48.1,5.9l-44.4,12.2c10.2,40.4,33.6,75.5,65.1,100.7l16.7-13.5l-3.6,23.1
			c6.4,4.3,13.1,8.1,20.1,11.6l14-19v25.3c21.7,8.7,45.3,13.5,70,13.5c33.4,0,64.7-8.7,91.9-24l-4.1-22.7l15.4,15.8
			c39.8-26.2,69-67,80-114.9L307.7,219.5z"/>
		<path class="st4" d="M187.6,42.4c47.1,5.7,94.2,11.5,141.3,17.2c21,20.7,37,46.4,46.4,75.1l1.7-0.1c-9.1-30.7-25.9-58.2-48.1-80.1
			l-80.6-6.8C228.2,45.8,207.9,44.1,187.6,42.4z"/>
		<path class="st4" d="M296.9,140.8c28,4.6,56,9.3,84,13.9c2.5,11.8,3.8,24,3.9,36.5c0-1,0.1-2,0.1-3c0-13.2-1.4-26.2-4-38.6
			l-55.7-5.8C315.7,142.7,306.3,141.8,296.9,140.8z"/>
		<path class="st5" d="M45.7,226l-31.4,8.6c0.4,1.6,0.9,3.2,1.3,4.8c14.4-5.7,28.7-11.3,43.1-17C54.4,223.6,50.1,224.8,45.7,226z"/>
		<path class="st5" d="M307.7,219.5c23.7,5.3,47.4,10.7,71.1,16c0.4-1.7,0.9-3.3,1.3-5l-46.5-7.1
			C324.9,222.1,316.3,220.8,307.7,219.5z"/>
		<path class="st4" d="M196.7,5.2c42.1,0,81,13.9,112.3,37.2h6.6C283.2,15.9,241.8,0,196.7,0C111.4,0,39.4,56.8,16.3,134.6l1.6,0.1
			C42.6,59.5,113.3,5.2,196.7,5.2z"/>
		<path class="st4" d="M12.4,155c31.5-4.2,63-8.5,94.5-12.7c-10.4,0.8-20.9,1.7-31.3,2.5l-63.3,5.1c-2.6,12.4-3.9,25.2-3.9,38.3
			c0,1,0,2,0.1,3C8.7,178.8,10,166.7,12.4,155z"/>
	</g>
	<g id="symbol_13_">
		<g>
			<linearGradient id="SVGID_4_" gradientUnits="userSpaceOnUse" x1="232.9243" y1="135.9152" x2="232.9243" y2="92.947">
				<stop  offset="0" style="stop-color:#F4D6A6"/>
				<stop  offset="0.216" style="stop-color:#F6E2BE"/>
				<stop  offset="0.4219" style="stop-color:#F7EACD"/>
				<stop  offset="0.5893" style="stop-color:#F7EDD2"/>
				<stop  offset="1" style="stop-color:#FFFFFF"/>
			</linearGradient>
			<path class="st6" d="M282.7,135.9h-99.6c-5.1,0-9.2-4.1-9.2-9.2v-24.5c0-5.1,4.1-9.2,9.2-9.2h99.6c5.1,0,9.2,4.1,9.2,9.2v24.5
				C291.9,131.8,287.8,135.9,282.7,135.9z"/>
			<path class="st0" d="M282.7,92.9c5.1,0,9.2,4.1,9.2,9.2v24.5c0,5.1-4.1,9.2-9.2,9.2h-99.6c-5.1,0-9.2-4.1-9.2-9.2v-24.5
				c0-5.1,4.1-9.2,9.2-9.2H282.7 M282.7,85.3h-99.6c-9.3,0-16.8,7.6-16.8,16.8v24.5c0,9.3,7.6,16.8,16.8,16.8h99.6
				c9.3,0,16.8-7.6,16.8-16.8v-24.5C299.5,92.9,292,85.3,282.7,85.3L282.7,85.3z"/>
		</g>
		<g>
			<linearGradient id="SVGID_5_" gradientUnits="userSpaceOnUse" x1="122.9485" y1="135.9152" x2="122.9485" y2="92.947">
				<stop  offset="0" style="stop-color:#F4D6A6"/>
				<stop  offset="0.216" style="stop-color:#F6E2BE"/>
				<stop  offset="0.4219" style="stop-color:#F7EACD"/>
				<stop  offset="0.5893" style="stop-color:#F7EDD2"/>
				<stop  offset="1" style="stop-color:#FFFFFF"/>
			</linearGradient>
			<path class="st7" d="M135.8,135.9h-25.6c-4.8,0-8.7-3.9-8.7-8.7v-25.6c0-4.8,3.9-8.7,8.7-8.7h25.6c4.8,0,8.7,3.9,8.7,8.7v25.6
				C144.4,132,140.5,135.9,135.8,135.9z"/>
			<path class="st0" d="M135.8,92.9c4.8,0,8.7,3.9,8.7,8.7v25.6c0,4.8-3.9,8.7-8.7,8.7h-25.6c-4.8,0-8.7-3.9-8.7-8.7v-25.6
				c0-4.8,3.9-8.7,8.7-8.7H135.8 M135.8,85.3h-25.6c-9,0-16.3,7.3-16.3,16.3v25.6c0,9,7.3,16.3,16.3,16.3h25.6
				c9,0,16.3-7.3,16.3-16.3v-25.6C152.1,92.6,144.7,85.3,135.8,85.3L135.8,85.3z"/>
		</g>
		<g>
			<linearGradient id="SVGID_6_" gradientUnits="userSpaceOnUse" x1="122.9485" y1="209.6583" x2="122.9485" y2="166.6901">
				<stop  offset="0" style="stop-color:#F4D6A6"/>
				<stop  offset="0.216" style="stop-color:#F6E2BE"/>
				<stop  offset="0.4219" style="stop-color:#F7EACD"/>
				<stop  offset="0.5893" style="stop-color:#F7EDD2"/>
				<stop  offset="1" style="stop-color:#FFFFFF"/>
			</linearGradient>
			<path class="st8" d="M135.8,209.7h-25.6c-4.8,0-8.7-3.9-8.7-8.7v-25.6c0-4.8,3.9-8.7,8.7-8.7h25.6c4.8,0,8.7,3.9,8.7,8.7V201
				C144.4,205.8,140.5,209.7,135.8,209.7z"/>
			<path class="st0" d="M135.8,166.7c4.8,0,8.7,3.9,8.7,8.7V201c0,4.8-3.9,8.7-8.7,8.7h-25.6c-4.8,0-8.7-3.9-8.7-8.7v-25.6
				c0-4.8,3.9-8.7,8.7-8.7H135.8 M135.8,159.1h-25.6c-9,0-16.3,7.3-16.3,16.3V201c0,9,7.3,16.3,16.3,16.3h25.6
				c9,0,16.3-7.3,16.3-16.3v-25.6C152.1,166.4,144.7,159.1,135.8,159.1L135.8,159.1z"/>
		</g>
		<g>
			<linearGradient id="SVGID_7_" gradientUnits="userSpaceOnUse" x1="122.9485" y1="283.4014" x2="122.9485" y2="240.4332">
				<stop  offset="0" style="stop-color:#F4D6A6"/>
				<stop  offset="0.216" style="stop-color:#F6E2BE"/>
				<stop  offset="0.4219" style="stop-color:#F7EACD"/>
				<stop  offset="0.5893" style="stop-color:#F7EDD2"/>
				<stop  offset="1" style="stop-color:#FFFFFF"/>
			</linearGradient>
			<path class="st9" d="M135.8,283.4h-25.6c-4.8,0-8.7-3.9-8.7-8.7v-25.6c0-4.8,3.9-8.7,8.7-8.7h25.6c4.8,0,8.7,3.9,8.7,8.7v25.6
				C144.4,279.5,140.5,283.4,135.8,283.4z"/>
			<path class="st0" d="M135.8,240.4c4.8,0,8.7,3.9,8.7,8.7v25.6c0,4.8-3.9,8.7-8.7,8.7h-25.6c-4.8,0-8.7-3.9-8.7-8.7v-25.6
				c0-4.8,3.9-8.7,8.7-8.7H135.8 M135.8,232.8h-25.6c-9,0-16.3,7.3-16.3,16.3v25.6c0,9,7.3,16.3,16.3,16.3h25.6
				c9,0,16.3-7.3,16.3-16.3v-25.6C152.1,240.1,144.7,232.8,135.8,232.8L135.8,232.8z"/>
		</g>
		<g>
			<linearGradient id="SVGID_8_" gradientUnits="userSpaceOnUse" x1="232.9243" y1="209.6583" x2="232.9243" y2="166.6901">
				<stop  offset="0" style="stop-color:#F4D6A6"/>
				<stop  offset="0.216" style="stop-color:#F6E2BE"/>
				<stop  offset="0.4219" style="stop-color:#F7EACD"/>
				<stop  offset="0.5893" style="stop-color:#F7EDD2"/>
				<stop  offset="1" style="stop-color:#FFFFFF"/>
			</linearGradient>
			<path class="st10" d="M282.7,209.7h-99.6c-5.1,0-9.2-4.1-9.2-9.2v-24.5c0-5.1,4.1-9.2,9.2-9.2h99.6c5.1,0,9.2,4.1,9.2,9.2v24.5
				C291.9,205.5,287.8,209.7,282.7,209.7z"/>
			<path class="st0" d="M282.7,166.7c5.1,0,9.2,4.1,9.2,9.2v24.5c0,5.1-4.1,9.2-9.2,9.2h-99.6c-5.1,0-9.2-4.1-9.2-9.2v-24.5
				c0-5.1,4.1-9.2,9.2-9.2H282.7 M282.7,159.1h-99.6c-9.3,0-16.8,7.6-16.8,16.8v24.5c0,9.3,7.6,16.8,16.8,16.8h99.6
				c9.3,0,16.8-7.6,16.8-16.8v-24.5C299.5,166.6,292,159.1,282.7,159.1L282.7,159.1z"/>
		</g>
		<g>
			<linearGradient id="SVGID_9_" gradientUnits="userSpaceOnUse" x1="232.9243" y1="283.4014" x2="232.9243" y2="240.4332">
				<stop  offset="0" style="stop-color:#F4D6A6"/>
				<stop  offset="0.216" style="stop-color:#F6E2BE"/>
				<stop  offset="0.4219" style="stop-color:#F7EACD"/>
				<stop  offset="0.5893" style="stop-color:#F7EDD2"/>
				<stop  offset="1" style="stop-color:#FFFFFF"/>
			</linearGradient>
			<path class="st11" d="M282.7,283.4h-99.6c-5.1,0-9.2-4.1-9.2-9.2v-24.5c0-5.1,4.1-9.2,9.2-9.2h99.6c5.1,0,9.2,4.1,9.2,9.2v24.5
				C291.9,279.3,287.8,283.4,282.7,283.4z"/>
			<path class="st0" d="M282.7,240.4c5.1,0,9.2,4.1,9.2,9.2v24.5c0,5.1-4.1,9.2-9.2,9.2h-99.6c-5.1,0-9.2-4.1-9.2-9.2v-24.5
				c0-5.1,4.1-9.2,9.2-9.2H282.7 M282.7,232.8h-99.6c-9.3,0-16.8,7.6-16.8,16.8v24.5c0,9.3,7.6,16.8,16.8,16.8h99.6
				c9.3,0,16.8-7.6,16.8-16.8v-24.5C299.5,240.4,292,232.8,282.7,232.8L282.7,232.8z"/>
		</g>
	</g>
</g>
<g>
</g>
<g>
</g>
<g>
</g>
<g>
</g>
<g>
</g>
<g>
</g>
</svg>
