<?xml version="1.0" encoding="utf-8"?>
<!-- Generator: Adobe Illustrator 25.2.1, SVG Export Plug-In . SVG Version: 6.00 Build 0)  -->
<svg version="1.1" id="Camada_1" xmlns="http://www.w3.org/2000/svg" xmlns:xlink="http://www.w3.org/1999/xlink" x="0px" y="0px"
	 viewBox="0 0 393.4 401.5" style="enable-background:new 0 0 393.4 401.5;" xml:space="preserve">
<style type="text/css">
	.st0{fill:#42210B;}
	.st1{fill:url(#SVGID_1_);}
	.st2{fill:url(#SVGID_2_);}
	.st3{fill:url(#SVGID_3_);}
	.st4{fill:#FFCF83;}
	.st5{fill:#B7724B;}
	.st6{fill:url(#SVGID_4_);}
</style>
<g id="play_x5F_button">
	<g id="button_15_">
		<ellipse class="st0" cx="196.7" cy="201.6" rx="196.7" ry="199.9"/>
		<linearGradient id="SVGID_1_" gradientUnits="userSpaceOnUse" x1="196.6916" y1="371.4979" x2="196.6916" y2="4.8506">
			<stop  offset="0" style="stop-color:#4E2A21"/>
			<stop  offset="0.2304" style="stop-color:#522D22"/>
			<stop  offset="0.4427" style="stop-color:#5D3527"/>
			<stop  offset="0.6478" style="stop-color:#6F422E"/>
			<stop  offset="0.8472" style="stop-color:#8A5537"/>
			<stop  offset="1" style="stop-color:#A36841"/>
		</linearGradient>
		<circle class="st1" cx="196.7" cy="188.2" r="183.3"/>
		<linearGradient id="SVGID_2_" gradientUnits="userSpaceOnUse" x1="196.6915" y1="376.3484" x2="196.6915" y2="-9.094947e-13">
			<stop  offset="0" style="stop-color:#63433B"/>
			<stop  offset="0.5045" style="stop-color:#A36841"/>
			<stop  offset="1" style="stop-color:#FFC255"/>
		</linearGradient>
		<path class="st2" d="M307.7,219.5l75.1-3.5c1.3-9.1,2.1-18.3,2.1-27.8c0-13.2-1.4-26.2-4-38.6l-84-8.8l80.2-6.3
			c-9.1-30.7-25.9-58.2-48.1-80.1l-141.3-12h128C283.2,15.9,241.8,0,196.7,0C111.4,0,39.4,56.8,16.3,134.6l90.7,7.7l-94.5,7.6
			c-2.6,12.4-3.9,25.2-3.9,38.3c0,9.6,0.7,19.1,2.1,28.4l48.1,5.9l-44.4,12.2c10.2,40.4,33.6,75.5,65.1,100.7l16.7-13.5l-3.6,23.1
			c6.4,4.3,13.1,8.1,20.1,11.6l14-19v25.3c21.7,8.7,45.3,13.5,70,13.5c33.4,0,64.7-8.7,91.9-24l-4.1-22.7l15.4,15.8
			c39.8-26.2,69-67,80-114.9L307.7,219.5z"/>
		<linearGradient id="SVGID_3_" gradientUnits="userSpaceOnUse" x1="196.6915" y1="376.3484" x2="196.6915" y2="-9.094947e-13">
			<stop  offset="0" style="stop-color:#63433B"/>
			<stop  offset="0.5045" style="stop-color:#A36841"/>
			<stop  offset="1" style="stop-color:#FFC255"/>
		</linearGradient>
		<path class="st3" d="M307.7,219.5l75.1-3.5c1.3-9.1,2.1-18.3,2.1-27.8c0-13.2-1.4-26.2-4-38.6l-84-8.8l80.2-6.3
			c-9.1-30.7-25.9-58.2-48.1-80.1l-141.3-12h128C283.2,15.9,241.8,0,196.7,0C111.4,0,39.4,56.8,16.3,134.6l90.7,7.7l-94.5,7.6
			c-2.6,12.4-3.9,25.2-3.9,38.3c0,9.6,0.7,19.1,2.1,28.4l48.1,5.9l-44.4,12.2c10.2,40.4,33.6,75.5,65.1,100.7l16.7-13.5l-3.6,23.1
			c6.4,4.3,13.1,8.1,20.1,11.6l14-19v25.3c21.7,8.7,45.3,13.5,70,13.5c33.4,0,64.7-8.7,91.9-24l-4.1-22.7l15.4,15.8
			c39.8-26.2,69-67,80-114.9L307.7,219.5z"/>
		<path class="st4" d="M187.6,42.4c47.1,5.7,94.2,11.5,141.3,17.2c21,20.7,37,46.4,46.4,75.1l1.7-0.1c-9.1-30.7-25.9-58.2-48.1-80.1
			l-80.6-6.8C228.2,45.8,207.9,44.1,187.6,42.4z"/>
		<path class="st4" d="M296.9,140.8c28,4.6,56,9.3,84,13.9c2.5,11.8,3.8,24,3.9,36.5c0-1,0.1-2,0.1-3c0-13.2-1.4-26.2-4-38.6
			l-55.7-5.8C315.7,142.7,306.3,141.8,296.9,140.8z"/>
		<path class="st5" d="M45.7,226l-31.4,8.6c0.4,1.6,0.9,3.2,1.3,4.8c14.4-5.7,28.7-11.3,43.1-17C54.4,223.6,50.1,224.8,45.7,226z"/>
		<path class="st5" d="M307.7,219.5c23.7,5.3,47.4,10.7,71.1,16c0.4-1.7,0.9-3.3,1.3-5l-46.5-7.1
			C324.9,222.1,316.3,220.8,307.7,219.5z"/>
		<path class="st4" d="M196.7,5.2c42.1,0,81,13.9,112.3,37.2h6.6C283.2,15.9,241.8,0,196.7,0C111.4,0,39.4,56.8,16.3,134.6l1.6,0.1
			C42.6,59.5,113.3,5.2,196.7,5.2z"/>
		<path class="st4" d="M12.4,155c31.5-4.2,63-8.5,94.5-12.7c-10.4,0.8-20.9,1.7-31.3,2.5l-63.3,5.1c-2.6,12.4-3.9,25.2-3.9,38.3
			c0,1,0,2,0.1,3C8.7,178.8,10,166.7,12.4,155z"/>
	</g>
	<g id="symbol_15_">
		<linearGradient id="SVGID_4_" gradientUnits="userSpaceOnUse" x1="211.3671" y1="291.7357" x2="211.3671" y2="90.6099">
			<stop  offset="0" style="stop-color:#F4D6A6"/>
			<stop  offset="0.216" style="stop-color:#F6E2BE"/>
			<stop  offset="0.4219" style="stop-color:#F7EACD"/>
			<stop  offset="0.5893" style="stop-color:#F7EDD2"/>
			<stop  offset="1" style="stop-color:#FFFFFF"/>
		</linearGradient>
		<path class="st6" d="M289.3,169.5L158.5,94c-16.7-9.6-37.6,2.4-37.6,21.7v151c0,19.3,20.9,31.3,37.6,21.7l130.7-75.5
			C306,203.2,306,179.1,289.3,169.5z"/>
		<path class="st0" d="M146,90.6c4.2,0,8.4,1.1,12.5,3.4l130.7,75.5c16.7,9.6,16.7,33.7,0,43.4l-130.7,75.5c-4,2.3-8.3,3.4-12.5,3.4
			c-13.1,0-25.1-10.5-25.1-25.1v-151C121,101.1,133,90.6,146,90.6 M146,83c-18,0-32.7,14.7-32.7,32.7v151c0,18,14.7,32.7,32.7,32.7
			c5.7,0,11.3-1.5,16.3-4.4l130.7-75.5c10.2-5.9,16.3-16.5,16.3-28.3c0-11.8-6.1-22.4-16.3-28.3L162.3,87.4
			C157.3,84.5,151.7,83,146,83L146,83z"/>
	</g>
</g>
<g>
</g>
<g>
</g>
<g>
</g>
<g>
</g>
<g>
</g>
<g>
</g>
</svg>
