<?xml version="1.0" encoding="utf-8"?>
<!-- Generator: Adobe Illustrator 24.1.2, SVG Export Plug-In . SVG Version: 6.00 Build 0)  -->
<svg version="1.1" id="Camada_1" xmlns="http://www.w3.org/2000/svg" xmlns:xlink="http://www.w3.org/1999/xlink" x="0px" y="0px"
	 viewBox="0 0 273.5 151.5" style="enable-background:new 0 0 273.5 151.5;" xml:space="preserve" preserveAspectRatio="none">
<style type="text/css">
	.st0{fill:url(#SVGID_1_);}
	.st1{opacity:5.000000e-02;fill:#8E1613;enable-background:new    ;}
	.st2{opacity:5.000000e-02;}
	.st3{fill:#8E1613;}
	.st4{opacity:0.15;fill:#BC6182;enable-background:new    ;}
</style>
<g>
	
		<radialGradient id="SVGID_1_" cx="135.95" cy="120.9971" r="118.7369" gradientTransform="matrix(1 0 0 -1 0 180)" gradientUnits="userSpaceOnUse">
		<stop  offset="0" style="stop-color:#FFC488"/>
		<stop  offset="0.3401" style="stop-color:#FFC086"/>
		<stop  offset="0.6899" style="stop-color:#FFB47E"/>
		<stop  offset="1" style="stop-color:#FFA274"/>
	</radialGradient>
	<path class="st0" d="M267.5,50.7c-2-0.3-14.3-1.7-6.5-3.4c0.3-0.6,1-0.4,1.6-0.5c0.4-0.3,0.8-0.6,1.2-1c0-0.1,0.1-0.3,0.1-0.4
		c-26-3.5-8.7-4.7,4.4-8.4c1.7-25.7,4.9-49.9,9.3-68.1c-28,2.9-50.2,4.8-76.3,5.9c-4.8,5.6-10.9,15.1-5.5,0.2
		c-4.3-0.3-8.5,1.2-12.8,0.8c-2.4,1.2-3.9,4.2-4.7-0.3c-11.9,0.3-25,0.4-39.8,0.4c-3.9,1-8.5,2.4-10.6,6c-0.2,0.4-0.8,0.6-1.1,0.3
		c-17.6-11-20.2,11.1-23.2-6.4c-11.4-0.1-21.7-0.4-31.4-0.8c-1.6,10.8-2.6,10.1-4-0.2c-25.1-1.1-46.8-3-74-5.8
		c3,12.2,5.4,27.2,7.2,43.5c2.2,3.1,16.5,8.9,16.5,8.9s-13.8-1.9-15.7-2c0.3,3.5,0.6,7.1,0.9,10.6c9.5,4,15.4,5.5,0.3,4.3
		c0.8,10.8,1.3,21.9,1.5,33c22.3-6.2,17.5-2,0.1,4.2c0.4,28.3-1.1,56.1-4.9,77.6c17.7-1.7,36.9-2.7,58.8-3.3c2.6-1.5,5.2-3.2,8-4.3
		c1.6-0.2,1.6,3.2,1.6,3.2s13.8-17,12.5,0.7c33.7-0.5,81.3-0.5,114.5,0.1c-0.6-11.5,1.4-7,4.9,0.1c0.7,0,1.3,0,2,0
		c-0.4-11.6,1.2-8.7,4.2,0.1c24.7,0.6,46,1.6,65.4,3.4C267.1,122.4,266,85.9,267.5,50.7z"/>
	<path class="st1" d="M4.8,94.8c-0.5,19.9-2,38.7-4.8,54.2c17.7-1.7,36.9-2.7,58.8-3.3c2.6-1.5,5.2-3.2,8-4.3
		c1.6-0.2,1.6,3.2,1.6,3.2s13.8-17,12.5,0.7c33.7-0.5,81.3-0.5,114.5,0.1c-0.6-11.5,1.4-7,4.9,0.1c0.7,0,1.3,0,2,0
		c-0.4-11.6,1.2-8.7,4.2,0.1c24.7,0.6,46,1.6,65.4,3.4c-2.8-15.6-4.3-34.5-4.8-54.6c-20.8,29.8-50.1,40.1-126.8,40.2
		C53.7,134.8,16.6,117.7,4.8,94.8z"/>
	<g class="st2">
		<path class="st3" d="M201.4-25.1c-4.8,5.6-10.9,15.1-5.5,0.2c-4.3-0.3-8.5,1.2-12.8,0.8c-2.4,1.2-3.9,4.2-4.7-0.3
			c-11.9,0.3-25,0.4-39.8,0.4c-3.9,1-8.5,2.4-10.6,6c-0.2,0.4-0.8,0.6-1.1,0.3c-17.6-11.1-20.2,11-23.2-6.5
			c-11.4-0.1-21.7-0.4-31.4-0.8c-1.6,10.8-2.6,10.1-4-0.2c-25.1-1.1-46.8-3-74-5.8c3,12.2,5.4,27.2,7.2,43.5
			c2.2,3.1,16.5,8.9,16.5,8.9s-13.8-1.9-15.7-2c0.3,3.5,0.6,7.1,0.9,10.6c4.7,2,8.5,3.4,9.4,4.1C34.8,10.8,68.3-9.1,136.9-9.1
			c69.2,0,99.4,15.9,124.7,47.8c2.2-0.5,4.5-1,6.6-1.6c1.7-25.7,4.9-49.9,9.3-68.1C249.6-28.1,227.4-26.2,201.4-25.1z"/>
		<path class="st3" d="M3.3,34.3c0.2,3.1,0.4,6.2,0.6,9.3c2.6-3.1,5.2-6,7.9-8.9C10.7,34.8,8,34.7,3.3,34.3z"/>
	</g>
	<path class="st4" d="M257.6,59.2c0-0.1-0.1-0.2-0.2-0.3c-0.1-0.1-0.1-0.1-0.2-0.2c-0.2-0.1-0.3-0.1-0.5-0.1h-0.1
		c-0.3-0.1-0.5-0.2-0.8-0.2c-0.1,0-0.3,0-0.4,0s-0.3,0-0.4,0.1s-0.2,0.1-0.3,0.3c-0.1,0.1-0.1,0.2-0.2,0.3c-0.1,0.3,0,0.5,0.1,0.8
		c0.1,0.1,0.1,0.2,0.2,0.2c0,0.3,0,0.7,0.3,0.9c0.1,0.1,0.2,0.1,0.2,0.2l0,0c0.1,0,0.2,0.1,0.3,0.1l0,0h0.1c0.1,0.1,0.3,0.2,0.5,0.2
		c0.3,0.1,0.6,0,0.9-0.1c0.3-0.2,0.5-0.5,0.5-0.9c0-0.3,0-0.6,0-0.9C257.8,59.5,257.8,59.3,257.6,59.2z"/>
	<g>
		<path class="st4" d="M267.5,50.7c-2-0.3-14.3-1.7-6.5-3.4c0.3-0.6,1-0.4,1.6-0.5c0.4-0.3,0.8-0.6,1.2-1c0-0.1,0.1-0.3,0.1-0.4
			c-21-2.8-13.8-4.2-3.3-6.5c1.2-0.1,2.3-0.3,3.4-0.8c1.4-0.3,2.9-0.7,4.3-1.1c1.7-25.7,4.9-49.9,9.3-68.1
			c-28,2.9-50.2,4.8-76.3,5.9c-4.8,5.6-10.9,15.1-5.5,0.2c-4.3-0.3-8.5,1.2-12.8,0.8c-2.4,1.2-3.9,4.2-4.7-0.3
			c-11.9,0.3-25,0.4-39.8,0.4c-3.9,1-8.5,2.4-10.6,6c-0.2,0.4-0.8,0.6-1.1,0.3c-17.6-11-20.2,11.1-23.2-6.4
			c-11.4-0.1-21.7-0.4-31.4-0.8c-1.6,10.8-2.6,10.1-4-0.2c-25.1-1.1-46.8-3-74-5.8c3,12.2,5.4,27.2,7.2,43.5
			c2.2,3.1,16.5,8.9,16.5,8.9s-13.8-1.9-15.7-2c0.3,3.5,0.6,7.1,0.9,10.6c9.5,4,15.4,5.5,0.3,4.3c0.8,10.8,1.3,21.9,1.5,33
			c22.3-6.2,17.5-2,0.1,4.2c0.4,28.3-1.1,56.1-4.9,77.6c17.7-1.7,36.9-2.7,58.8-3.3c2.6-1.5,5.2-3.2,8-4.3c1.6-0.2,1.6,3.2,1.6,3.2
			s13.8-17,12.5,0.7c33.7-0.5,81.3-0.5,114.5,0.1c-0.6-11.5,1.4-7,4.9,0.1c0.7,0,1.3,0,2,0c-0.4-11.6,1.2-8.7,4.2,0.1
			c24.7,0.6,46,1.6,65.4,3.4C267.1,122.4,266,85.9,267.5,50.7z M252.4,141.9c-0.1-0.1-0.1-0.1-0.2-0.2c-0.9-0.7-2-1.2-3.1-1.5
			c-0.5-0.2-1.1-0.3-1.6-0.4c-0.2,0-0.5-0.1-0.7-0.1c-0.3-0.6-1.1-1.1-1.8-0.8c-0.4,0.1-0.4,0.1-0.8,0c-0.4-0.2-0.9-0.4-1.3-0.7
			c-1-0.5-2.1-0.9-3.3-0.6c-1.2,0.2-2.2,1.1-2.9,2.1c-0.6,0.8-1,1.9-1.7,2.5c-7.8,0.2-16.1,0.4-24.8,0.2c-0.8-2.7-8-15.6-8-15.6
			l-1.8,12.7l-8.1-12.1c0,0-0.7,7.7-1.6,13.8c-15.7-0.2-36,0.1-56.2,0.4c0-0.3-0.1-0.7-0.4-0.9c-4-3.4-11-6-15.7-2.5
			c-0.2,0-0.4,0.1-0.6,0.2c-0.8,0.3-1.5,0.8-2.1,1.3c-0.5,0.4-1,1-1.6,1.2c-0.5,0.2-0.9,0.6-1,1.1c-10.3,0.2-20.1,0.4-28.7,0.5
			c-0.7-4.5-3.7-13.4-3.7-13.4l-10.3,9.5l-2.9-4c0,0-5.3,4.4-7.6,5.8c-7.4,0.2-14.7,0.4-21.7,0.6c-0.1,0-0.2-0.1-0.2-0.2
			c0.1-0.3,0.1-0.5,0-0.8c-0.2-0.7-1.1-1.3-1.8-1c-0.3,0.1-0.5,0.2-0.8,0.3v-0.1c-0.8-1.7-3-1.8-4.3-0.6c-0.4,0.4-0.7,0.8-0.9,1.3
			c-0.5,0-0.9,0.3-1.1,0.7c-0.4,0-0.7,0.1-1,0.4c-0.1,0.1-0.2,0.2-0.2,0.3c-7.4,0.3-14.3,0.6-20.5,1.1c1.6-10.9,1.9-23.8,1.8-37.6
			c2-0.7,3.7-2,4.9-3.8c0.6-0.9,1.1-2,1.3-3c0.2-0.9,0-2.3,0.6-3c0.3-0.3,0.7-0.5,1-0.8c0.4-0.5,0.7-1.1,0.7-1.8
			c0-0.9-0.5-1.7-0.1-2.6c0.8-1.7,2.4-3,2.2-5.1c-0.1-0.8-0.6-1.5-1.5-1.5c-1.1-0.1-2.1,0.1-3,0.6c-0.5,0.2-0.9,0.4-1.3,0.7
			c-0.3,0.2-0.7,0.7-1.1,0.8c-0.5,0.1-1,0-1.5,0.1s-1,0.3-1.4,0.5s-0.7,0.4-1.1,0.7c-0.1-4.1-0.1-8.3-0.1-12.5
			c12.8-4.8,21.1-13,21.1-13S17,62.3,9,64.3C8.8,58,7.3,43.1,6.9,36.9c5.4,0.5,11.5,1.4,11.7-1.2c1.2-5.5-6.4-8.2-11.9-10.4
			c0-0.1,22.8-0.7,22.8-0.7c-4-2.7-22.2-9.1-24.9-13c-0.1-0.9-0.2-1.9-0.3-2.9C5,9.2,5.9,9.3,6.8,9.2C7.4,9.1,8,8.8,8.5,8.5
			s1-0.6,1.4-0.8c0.7-0.2,1-0.8,1.1-1.4C11.2,3.9,9.7,1.8,7.5,1C7.1,0.8,6.9,0.7,6.6,0.3C6.2-0.2,5.8-0.6,5.4-1.1C4.6-2.1,3.8-3,3-4
			c-1-8.7-1.9-17-3.1-23.2c8.5,0.8,17.2,1.8,26,2.7c0,0.1,0,0.2,0.1,0.3c0.2,0.7,1.1,1.4,1.8,1c0.1,0,0.2-0.1,0.3-0.1l0,0
			c0,0,0.2,0.1,0.1,0c0.2,0.1,0.1,0,0.2,0.1v0.1c0.2,1.1,1.1,1.7,2.1,2c0.2,0.1,0.4,0.2,0.6,0.4c0.3,0.3,0.5,0.5,0.8,0.8
			c0.6,0.6,1.3,1.1,2.1,1.2c0.9,0.2,1.9,0.1,2.6-0.6c0.3-0.3,0.6-0.6,0.7-1.1c0-0.1,0.1-0.7,0.2-1.1c0.1,0,0.2,0,0.2,0
			c0.2,0,0.3,0,0.5,0c0.8-0.1,1.6-0.2,2.2-0.6c0.3-0.2,0.6-0.6,0.7-0.9c8.3,0.8,16.6,1.4,24.4,1.8c1.8,5.6,3.7,22.5,3.7,22.5
			S74-17,76-22.6c5.5,0.2,16.7,2.1,22.7,2.2c2.7,0.1,3.4,4,4.2,6.6c2,6.2,1.3,13.1,1.3,13.1s3.1-9,7-14c2-2.6,10.1-2.9,12.1-0.3
			c2.6,3.3,3.8,9.1,3.8,9.1s4.4-13.7,10.1-13.9c2.2,0,4.5,0,6.8,0.1c0.1,0.1,0.3,0.1,0.4,0.2c0.1,0,0.2,0,0.2,0l0.1,0.1
			c0.1,0.1,0.1,0.2,0.2,0.3c0.3,0.6,0.3,0.8,0.7,1.6c0.6,1.3,1.7,2.5,3.2,2.5c2,0,3.3-1.8,5-2.7c1.6-0.8,3.3-1.2,5-1.1
			c0.4,0,0.7-0.1,0.9-0.3c4.1,0.2,8,0.3,11.5,0.2c2.5,0,4.1,2.6,4.4,5c0.2,1.8-0.6,8.3-0.6,8.3s7-9.5,9-11.8
			c2.1-2.4,5.4-1.9,5.4,1.4c0,5-0.3,12.7-0.3,12.7s4.2-6.4,8.7-11.2c2.6-2.8,7-5.1,10.8-5.3c3.5-0.2,7.1-0.5,10.9-0.8
			c0.3,0.1,0.6,0.1,0.9,0c1.4-0.5,2.9,1.9,4.1,2.4c1.7,0.8,3.7,0,5.3,1s3,2.3,4.7,3.1c1.7,0.8,3.7,1.5,5.6,1.3
			c1.6-0.2,2.7-1.4,2.9-2.9c0.1-0.7,0.1-1.5,0.2-2.2c0.2-0.8,0.9-1.3,1.4-1.9c0.5-0.6,1.1-1.3,1.4-2c0.7-0.4,1.3-0.7,2-0.9
			c1.5-0.6,3.2-0.9,4.6-1.1c0.6-0.1,1.2-0.4,1.4-1c6.7-0.9,13.2-1.7,19.5-2.3c-1.2,5.8-6.3,20.2-6.8,25.7c-0.2,2-1.4,3.7-3.2,4.5
			l-9.5,3l6.5,0.4c3.1,0,5.5,2.6,5.4,5.7c0,0.1,0,0.3,0,0.4c-0.1,0.1-0.2,0.2-0.3,0.4c-0.3,0.5-0.6,1.1-0.9,1.6
			c-0.1,0.1-0.2,0.2-0.4,0.2c-0.2,0.1-0.5,0.3-0.7,0.4c-1.3,0.8-2.6,1.9-2.6,3.6c-0.1,1.5,1.1,2.7,2.4,3.3c0.5,0.2,0.9,0.4,1.4,0.7
			c0.1,0.1,0.3,0.2,0.4,0.3s-0.1-0.1,0.1,0.1l0,0v0.1c-0.2,0.5,0,1,0.4,1.4c-0.1,2.2-0.1,4.2-0.2,5.7c-0.2,2.8-2.1,4.5-4.6,5.5
			c-1.8,0.3-3.7,0.1-5.3-0.1c-1.4-0.1-2.8-0.2-4.2,0c-0.2,0-0.4-0.1-0.6-0.1c-1.2-0.3-2.3-1.2-3.6-0.9c-1.1,0.2-1.8,1-2.4,1.9
			c-0.8,1.1-1.5,2.2-2.2,3.4c-7.4,1.3-13.6,2.2-13.6,2.2s19,3.5,24.1,4.7c-2.1,1.6-6.3,3.7-6.3,3.7s5.9,0,10.7,1.1
			c3.1,0.7,5.6,1.8,5.4,5c-0.1,1.6-0.1,3.2-0.2,4.8c-0.2-0.1-0.4-0.2-0.6-0.2c-0.6-0.1-1.2-0.1-1.7,0.3c-0.6,0.4-0.9,0.9-1,1.6
			c-0.1,0.5,0.1,1,0.4,1.4c0.2,0.3,0.4,0.5,0.7,0.7c0.1,0.1,0.3,0.2,0.5,0.2h0.1c0,0.1,0.1,0.3,0.1,0.4c0.1,0.3,0.3,0.6,0.5,0.8
			c0.2,0.2,0.4,0.3,0.7,0.4c-0.3,10.8-0.5,22.1-0.1,32.1c0.5,15.5,0.4,31.1,2.1,43.1C260.8,142.1,256.6,142,252.4,141.9z"/>
		<path class="st4" d="M27.1,81.4C27.1,81.4,27,81.3,27.1,81.4c-0.2-0.2-0.3-0.3-0.4-0.3c-0.1-0.1-0.3-0.1-0.4-0.2h-0.1
			c-0.4-0.1-0.6-0.1-1,0h-0.1C25,81,24.8,81,24.7,81.1c-0.1,0-0.2,0.1-0.2,0.2c-0.1,0.1-0.2,0.1-0.2,0.2l0,0c-0.1,0-0.3,0.1-0.4,0.1
			c-0.3,0.1-0.4,0.2-0.7,0.4c-0.2,0.1-0.3,0.3-0.4,0.5c-0.1,0.1-0.1,0.2-0.1,0.3c0,0.1-0.1,0.2-0.1,0.3c-0.1,0.4-0.1,0.8,0.2,1.2
			c0.1,0.2,0.2,0.3,0.4,0.4c0.1,0.1,0.2,0.1,0.3,0.2c0.1,0.1,0.1,0.2,0.2,0.2c0.3,0.3,0.7,0.5,1.1,0.4c0.1,0,0.2,0,0.3,0
			c0.3,0.1,0.5,0.1,0.8,0c0.1,0,0.2-0.1,0.4-0.2l0,0c0.4-0.2,0.7-0.3,1.1-0.6c0.3-0.3,0.5-0.6,0.6-1c0.1-0.2,0.1-0.4,0.1-0.6
			c0-0.1,0-0.1,0-0.2c0-0.4-0.1-0.7-0.3-1.1C27.3,81.7,27.2,81.5,27.1,81.4z"/>
		<path class="st4" d="M42.8,133.6c-0.1-0.2-0.2-0.3-0.3-0.4c-0.1-0.2-0.2-0.3-0.4-0.4c-0.1-0.1-0.3-0.3-0.5-0.4
			c-0.1,0-0.1-0.1-0.2-0.1c-0.2-0.1-0.3-0.2-0.5-0.2c-0.4-0.1-0.8-0.1-1.2,0c-0.3,0-0.5,0.2-0.7,0.3s-0.4,0.3-0.6,0.5
			c-0.1,0.1-0.1,0.1-0.2,0.2c-0.2,0.1-0.4,0.3-0.5,0.5c-0.2,0.3-0.3,0.8-0.2,1.2c0.2,0.5,0.4,1,0.8,1.4c0.3,0.3,0.7,0.6,1.2,0.8
			c0.4,0.2,0.9,0.3,1.4,0.3c0.6,0,1.1-0.1,1.6-0.4c0.1-0.1,0.2-0.2,0.3-0.2c0.1-0.1,0.2-0.3,0.3-0.5c0.1-0.3,0.2-0.6,0.1-1
			C43.1,134.4,43,134,42.8,133.6z"/>
		<path class="st4" d="M132.6,131.4c0-0.1-0.1-0.3-0.2-0.4c0-0.1-0.1-0.1-0.1-0.2c-0.1-0.2-0.2-0.3-0.4-0.4c-0.3-0.2-0.6-0.2-1-0.2
			c-0.3,0-0.6,0-0.9,0.1c-0.3,0.1-0.6,0.2-0.9,0.3c-0.2,0.1-0.3,0.2-0.4,0.4c-0.1,0.1-0.2,0.3-0.3,0.5l-0.1,0.1
			c-0.1,0.1-0.1,0.2-0.2,0.4c-0.1,0.3-0.1,0.5,0,0.8c0.1,0.2,0.1,0.4,0.2,0.5c0,0,0,0.1,0.1,0.1c0.1,0.1,0.2,0.3,0.3,0.4
			c0.1,0.1,0.3,0.2,0.4,0.3c0.2,0.1,0.3,0.2,0.5,0.2c0.1,0,0.1,0,0.2,0.1c0.2,0,0.3,0.1,0.5,0.1h0.1c0.2,0,0.3,0,0.5-0.1h0.1
			c0.2-0.1,0.4-0.1,0.5-0.2c0.3-0.2,0.6-0.5,0.8-0.8c0-0.1,0.1-0.1,0.1-0.2c0.1-0.2,0.2-0.4,0.2-0.5
			C132.8,132.2,132.8,131.9,132.6,131.4L132.6,131.4z"/>
		<path class="st4" d="M234.9,137.5c-0.1-0.2-0.3-0.3-0.5-0.4c-0.1-0.1-0.2-0.1-0.3-0.2c-0.4-0.2-0.8-0.3-1.3-0.3
			c-0.2,0-0.5,0-0.7,0.1c-0.2,0-0.4,0.1-0.6,0.2c-0.2,0.1-0.4,0.3-0.6,0.4c-0.1,0.1-0.1,0.2-0.2,0.3c-0.1,0.1-0.2,0.2-0.2,0.3
			c-0.2,0.4-0.3,0.8-0.2,1.2c0.1,0.3,0.4,0.7,0.7,0.9c0.2,0.1,0.5,0.2,0.8,0.2c0.1,0.1,0.1,0.1,0.2,0.2c0.2,0.1,0.4,0.2,0.6,0.3
			c0.1,0,0.2,0.1,0.3,0.1c0.2,0,0.4,0.1,0.6,0.1c0.5,0,0.8-0.1,1.3-0.3c0.4-0.2,0.8-0.8,0.7-1.3c0-0.2,0-0.5-0.1-0.7
			C235.1,138,235.1,137.8,234.9,137.5z"/>
		<path class="st4" d="M17.5,3.9c-0.1-0.2-0.3-0.4-0.5-0.5s-0.4-0.2-0.5-0.3c-0.2-0.1-0.4-0.2-0.6-0.2c-0.2,0-0.4,0-0.6,0
			S14.9,3,14.8,3.2c-0.2,0.1-0.3,0.2-0.4,0.4c-0.1,0.1-0.1,0.2-0.2,0.4c-0.1,0.3-0.1,0.5,0,0.8c0.1,0.1,0.1,0.2,0.2,0.4
			s0.3,0.4,0.5,0.5s0.4,0.2,0.5,0.3c0.2,0.1,0.4,0.2,0.6,0.2c0.2,0,0.4,0,0.6,0s0.4-0.1,0.5-0.3c0.2-0.1,0.3-0.2,0.4-0.4
			c0.1-0.1,0.1-0.2,0.2-0.4c0.1-0.3,0.1-0.5,0-0.8C17.6,4.1,17.6,4,17.5,3.9z"/>
		<path class="st4" d="M230.6-9.4c0.1,0.1,0.3,0.2,0.5,0.3c0.2,0.1,0.4,0.1,0.6,0.1c0.1,0,0.3,0,0.4-0.1c0.3-0.1,0.5-0.2,0.7-0.4
			l0.2-0.3c0.1-0.2,0.2-0.5,0.2-0.8v-0.8c0-0.2,0-0.4-0.1-0.6s-0.2-0.3-0.3-0.5c-0.1-0.1-0.3-0.2-0.5-0.3c-0.2-0.1-0.4-0.1-0.6-0.1
			c-0.1,0-0.3,0-0.4,0.1c-0.3,0.1-0.5,0.2-0.7,0.4l-0.2,0.3c-0.1,0.2-0.2,0.5-0.2,0.8v0.8c0,0.2,0,0.4,0.1,0.6
			C230.4-9.7,230.6-9.5,230.6-9.4z"/>
		<path class="st4" d="M255.5,13.6c0,0.1,0,0.3,0.1,0.4l0,0l0,0c0,0.1,0.1,0.3,0.2,0.4l0,0l0,0l0,0l0,0c0,0.1,0.2,0.2,0.2,0.3l0,0
			l0,0c0.1,0,0.1,0.1,0.2,0.1c0,0,0.1,0.1,0.2,0.1l0,0l0,0c0.1,0,0.1,0.1,0.2,0.1c0,0,0.1,0.1,0.2,0.1l0,0l0,0c0.1,0,0.1,0,0.2,0
			s0.1,0,0.2,0l0,0c0.1,0,0.2,0,0.2,0h0.2c0.1,0,0.2-0.1,0.2-0.1s0.1-0.1,0.2-0.1l0,0l0,0c0.1-0.1,0.2-0.2,0.3-0.2
			c0.1-0.1,0.2-0.3,0.3-0.5v-0.1c0-0.1,0.1-0.2,0.1-0.3c0.1-0.3,0.1-0.5,0-0.8l0,0l0,0c0,0-0.1-0.3-0.2-0.4l0,0l0,0
			c0-0.1-0.1-0.1-0.1-0.2c0,0-0.1-0.1-0.1-0.2l0,0l0,0c-0.1-0.1-0.2-0.2-0.3-0.2l0,0l0,0l0,0l0,0c-0.1,0-0.3-0.1-0.4-0.2
			c0,0,0,0-0.1,0l0,0c-0.1,0-0.2,0-0.2,0s-0.1,0-0.2,0l0,0l0,0c-0.1,0-0.2,0-0.2,0c-0.1,0-0.1,0-0.2,0s-0.2,0.1-0.2,0.1
			s-0.1,0.1-0.2,0.1s-0.1,0.1-0.2,0.1c0,0-0.1,0.1-0.2,0.1l0,0l0,0l-0.2,0.3l0,0l0,0c0,0.1-0.1,0.2-0.1,0.2s-0.1,0.1-0.1,0.2l0,0
			c0,0.1,0,0.2,0,0.2C255.5,13.4,255.5,13.5,255.5,13.6L255.5,13.6L255.5,13.6L255.5,13.6z"/>
	</g>
</g>
</svg>
