<?xml version="1.0" encoding="utf-8"?>
<!-- Generator: Adobe Illustrator 25.2.1, SVG Export Plug-In . SVG Version: 6.00 Build 0)  -->
<svg version="1.1" id="Camada_1" xmlns="http://www.w3.org/2000/svg" xmlns:xlink="http://www.w3.org/1999/xlink" x="0px" y="0px"
	 viewBox="0 0 2907.1 1255.1" style="enable-background:new 0 0 2907.1 1255.1;" xml:space="preserve">
<style type="text/css">
	.st0{fill:url(#SVGID_1_);}
	.st1{fill:url(#SVGID_2_);}
	.st2{fill:#F4BE9A;}
	.st3{fill:url(#SVGID_3_);}
	.st4{fill:#FF5E08;}
	.st5{fill:#FDD967;}
	.st6{fill:#FFFFFF;}
</style>
<g>
	<g>
		<linearGradient id="SVGID_1_" gradientUnits="userSpaceOnUse" x1="1331.0288" y1="-222.4922" x2="1736.3011" y2="2194.9136">
			<stop  offset="8.000000e-08" style="stop-color:#FFFFFF"/>
			<stop  offset="1" style="stop-color:#BF5A00"/>
		</linearGradient>
		<path class="st0" d="M421.9,1255.1c-92.7,0-181.7-30.9-250.8-87.1c-35.3-28.7-64-62.7-85.3-101.1c-22.7-41-36-85.2-39.4-131.4
			l-39.1-527C2.1,344.2,4,291,12.9,245.8c10.5-52.7,31.4-96.4,62.2-129.8c29.1-31.6,66.4-53.6,110.9-65.5
			c29.1-7.8,61.6-11.4,102.3-11.4c20.1,0,40.3,0.8,59.9,1.6c14.1,0.6,28.6,1.2,42.6,1.4l2137.7,39.9c65.9,1.2,121.4,9,169.6,23.9
			c68.7,21.1,121.8,56.7,157.9,105.8c28.4,38.7,45.2,84.3,49.9,135.4c4.2,45.9-1.7,96.9-17.3,151.8L2804,862.6
			c-8.9,38.4-24.8,74.7-47.2,108c-21.2,31.6-47.8,59.6-79,83.5c-30.4,23.2-64.4,41.8-101.2,55.3c-37.1,13.6-76.2,21.7-116.2,24.1
			L447,1254.3C438.7,1254.8,430.2,1255.1,421.9,1255.1z"/>
		<linearGradient id="SVGID_2_" gradientUnits="userSpaceOnUse" x1="1218.338" y1="-717.8738" x2="1637.5571" y2="1469.6671">
			<stop  offset="8.000000e-08" style="stop-color:#FFFFFF"/>
			<stop  offset="1" style="stop-color:#FFE6D3"/>
		</linearGradient>
		<path class="st1" d="M417.4,1216c-92.7,0-181.7-30.9-250.8-87.1c-35.3-28.7-64-62.7-85.3-101.1c-22.7-41-36-85.2-39.4-131.4
			l-39.1-527c-5.2-64.2-3.3-117.4,5.6-162.6C19,154,39.9,110.3,70.7,76.9c29.1-31.6,66.4-53.6,110.9-65.5C210.7,3.6,243.2,0,283.9,0
			c20.1,0,40.3,0.8,59.9,1.6c14.1,0.6,28.6,1.2,42.6,1.4L2524,43c65.9,1.2,121.4,9,169.6,23.9c68.7,21.1,121.8,56.7,157.9,105.8
			c28.4,38.7,45.2,84.3,49.9,135.4c4.2,45.9-1.7,96.9-17.3,151.8l-84.5,363.6c-8.9,38.4-24.8,74.7-47.2,108
			c-21.2,31.6-47.8,59.6-79,83.5c-30.4,23.2-64.4,41.8-101.2,55.3c-37.1,13.6-76.2,21.7-116.2,24.1L442.6,1215.2
			C434.2,1215.7,425.8,1216,417.4,1216z"/>
		<path class="st2" d="M2759.3,242.3L196.5,994l125,210.7c31,7.4,63.3,11.3,95.9,11.3c8.3,0,16.8-0.3,25.2-0.8L2456,1094.3
			c40-2.4,79.1-10.5,116.2-24.1c36.8-13.5,70.8-32.1,101.2-55.3c31.2-23.8,57.8-51.9,79-83.5c22.4-33.3,38.3-69.6,47.2-108
			l84.5-363.6c2.2-7.8,4.2-15.5,6.1-23.1L2759.3,242.3z"/>
		<linearGradient id="SVGID_3_" gradientUnits="userSpaceOnUse" x1="1120.4739" y1="-340.3802" x2="1712.2655" y2="1253.7261">
			<stop  offset="0" style="stop-color:#FCC529"/>
			<stop  offset="1" style="stop-color:#FB8243"/>
		</linearGradient>
		<path class="st3" d="M2449,979L435.7,1099.9c-144.3,8.7-269.2-86.4-278.5-212.1l-39.1-527.4C95.2,79,231.2,115.7,384.2,118.6
			l2137.7,39.9c162.7,3,314.2,53.6,250.3,272.2L2687,797.4C2663.7,897.6,2566.3,972,2449,979z"/>
		<path class="st4" d="M2498,872.4L394.7,1016.5c-91.7,5.3-180.3-50.9-234.5-105.7c21.8,114.1,140.1,197.3,275.5,189.1L2449,979
			c117.2-7,214.6-81.4,237.9-181.6l72.3-311.1C2700.1,608,2642.4,861.8,2498,872.4z"/>
		<path class="st5" d="M2521.9,158.5L384.2,118.6c-81.5-1.5-158.2-12.7-208.6,19.9l0,0c-0.1,0.1-0.2,0.1-0.3,0.2
			c-0.5,0.3-1.1,0.7-1.6,1.1c-0.3,0.2-0.5,0.4-0.8,0.5c-0.4,0.3-0.7,0.5-1.1,0.8c-0.3,0.2-0.6,0.4-0.9,0.6c-0.3,0.2-0.7,0.5-1,0.7
			c-0.3,0.2-0.6,0.4-0.9,0.7c-0.3,0.2-0.7,0.5-1,0.8c-0.3,0.2-0.6,0.5-0.9,0.7c-0.3,0.3-0.6,0.5-1,0.8c-0.3,0.2-0.6,0.5-0.9,0.7
			c-0.3,0.3-0.6,0.5-0.9,0.8c-0.3,0.2-0.6,0.5-0.9,0.7c-0.3,0.3-0.7,0.6-1,0.9c-0.3,0.3-0.6,0.6-0.9,0.8c-0.5,0.5-1,0.9-1.5,1.4
			c-0.3,0.3-0.6,0.5-0.8,0.8c-0.3,0.3-0.6,0.6-0.9,0.9c-0.3,0.3-0.6,0.6-0.9,0.9c-0.3,0.3-0.5,0.6-0.8,0.8c-0.3,0.3-0.6,0.6-0.9,0.9
			c-0.3,0.3-0.5,0.6-0.8,0.8c-0.3,0.3-0.6,0.6-0.9,1c-0.2,0.3-0.5,0.6-0.7,0.8c-0.3,0.3-0.6,0.7-0.9,1c-0.2,0.3-0.5,0.6-0.7,0.9
			c-0.3,0.3-0.6,0.7-0.9,1.1c-0.2,0.3-0.4,0.6-0.7,0.8c-0.3,0.4-0.6,0.7-0.9,1.1c-0.1,0.1-0.2,0.2-0.3,0.3c-0.7,0.9-1.4,1.8-2.1,2.8
			c-0.2,0.3-0.4,0.5-0.5,0.8c-0.3,0.4-0.6,0.8-0.9,1.2c-0.2,0.3-0.4,0.6-0.6,0.9c-0.3,0.4-0.6,0.8-0.8,1.3c-0.2,0.3-0.4,0.6-0.6,0.9
			c-0.3,0.4-0.5,0.9-0.8,1.3c-0.2,0.3-0.4,0.6-0.6,0.9c-0.3,0.4-0.5,0.9-0.8,1.3c-0.2,0.3-0.3,0.6-0.5,0.9c-0.3,0.5-0.5,0.9-0.8,1.4
			c-0.2,0.3-0.3,0.5-0.4,0.8c-0.3,0.5-0.6,1-0.9,1.6c-0.1,0.1-0.1,0.2-0.1,0.3c-0.7,1.4-1.4,2.7-2.1,4.1c0,0.1-0.1,0.1-0.1,0.2
			c-0.3,0.6-0.6,1.2-0.8,1.7c-0.1,0.3-0.2,0.5-0.4,0.8c-0.3,0.6-0.5,1.1-0.8,1.7c-0.1,0.3-0.3,0.6-0.4,0.9c-0.2,0.6-0.5,1.1-0.7,1.7
			c-0.1,0.3-0.3,0.6-0.4,0.9c-0.2,0.6-0.5,1.2-0.7,1.7c-0.1,0.3-0.2,0.6-0.4,0.9c-0.2,0.6-0.5,1.2-0.7,1.8c-0.1,0.3-0.2,0.5-0.3,0.8
			c-0.3,0.7-0.5,1.3-0.7,2c0,0.1-0.1,0.2-0.1,0.3c-0.9,2.4-1.7,5-2.5,7.5c-0.1,0.2-0.1,0.4-0.2,0.6c-0.2,0.7-0.4,1.5-0.7,2.2
			c-0.1,0.3-0.2,0.6-0.3,0.9c-0.2,0.7-0.4,1.4-0.6,2.1c-0.1,0.3-0.2,0.6-0.3,0.9c-0.2,0.7-0.4,1.4-0.6,2.2c-0.1,0.3-0.2,0.6-0.2,0.9
			c-0.2,0.8-0.4,1.5-0.6,2.3c-0.1,0.3-0.1,0.5-0.2,0.8c-0.2,0.8-0.4,1.6-0.6,2.5c0,0.1-0.1,0.3-0.1,0.4c-0.7,3-1.3,6.1-2,9.3
			c0,0,0,0,0,0.1c-0.2,0.9-0.3,1.9-0.5,2.8c0,0.3-0.1,0.5-0.1,0.8c-0.2,0.9-0.3,1.8-0.4,2.7c0,0.2-0.1,0.4-0.1,0.6c0,0,0,0,0,0
			c-5.2,31.9-6.2,72-2.1,122.1l16.6,224C135,413.5,151.6,316.1,169,261c13.9-44.1,55-74,101.3-73.4c29.3,0.4,60.6,2.4,92.6,3
			l2183.6,39.9c97.6,1.8,191.4,20,238.8,79C2768.9,192.1,2648.8,160.9,2521.9,158.5z"/>
		<path class="st4" d="M137.9,627.7c0,0,101.9,9,115.5,6.6c13.6-2.4,99.5-47.4,115.5-53.3c0,0-73.5,97.8-96,100.1
			c-22.5,2.4-130.7,5.9-130.7,5.9L137.9,627.7z"/>
		<path class="st4" d="M1570.1,162.1c0,0-6.2,81.3-96.1,110.8C1474,272.9,1492,187.5,1570.1,162.1z"/>
		<path class="st6" d="M267.6,670.2c-19.3,2-103.3-0.1-126.7-0.7l1.3,17.5c0,0,108.2-3.5,130.7-5.9c22.5-2.4,96-100.1,96-100.1
			S290.1,667.8,267.6,670.2z"/>
		<path class="st6" d="M1474,272.9c89.9-29.6,96.1-110.8,96.1-110.8S1548.9,225.5,1474,272.9z"/>
		<g>
			<path class="st4" d="M843.5,935.7c-6.1,0-11.6-4.2-13-10.3l-20.9-90.4c-1.6-7,2.7-14.1,9.7-15.9l8.5-2.2L737,478.1l-26.2,11.4
				c-1.7,0.7-3.5,1.1-5.3,1.1c-1.8,0-3.5-0.3-5.2-1c-3.4-1.4-6-4.1-7.3-7.5l-40.8-107.2c-1.3-3.3-1.1-7,0.3-10.3
				c1.5-3.2,4.2-5.8,7.5-7c5.2-1.9,128-46.9,171.2-57.4c30.6-7.5,60.6-11.3,89.1-11.3c13.3,0,26.6,0.8,39.5,2.4
				c43.1,5,79.7,23,108.5,53.8c29.4,30.6,46.7,78.2,51.4,141.4c0,0.1,0,0.2,0,0.2c1.9,33.9-4.2,65-18.2,92.6
				c-11.7,23-29,43.7-51.4,61.4c-26,20.6-57.6,36.7-96.4,49.1l17.9,91.5l3.5-0.5c0.7-0.1,1.3-0.1,2-0.1c6.3,0,11.9,4.5,13.1,10.9
				l18.2,97.8c1.3,7.2-3.3,14.1-10.5,15.5l-152,30.4C845.2,935.6,844.3,935.7,843.5,935.7z M927.2,572.2c12.5-6.3,29.9-20.4,38.7-34
				c10.5-16.1,15.2-31.9,16-54.3c0,0,0-0.1,0-0.1c0.9-17.3-16.7-39.2-33.7-48.8c-8.6-4.9-18-7.3-28.6-7.3c-8.8,0-17.8,1.6-26.5,3.8
				L927.2,572.2z"/>
			<path class="st6" d="M961.1,796.5l16.1-2.4l18.2,97.8l-152,30.4l-20.9-90.4l21.5-5.6l-98.3-366.6l-40.4,17.5l-40.8-107.2
				c0,0,126.8-46.5,169.8-57c42.9-10.5,84-13.5,123.8-8.5c40.1,4.6,73.5,21,100.4,49.7c27.2,28.3,43.2,72.8,47.8,133.3
				c7.7,136.1-123.8,180.3-168.1,193.1L961.1,796.5z M917.6,588.9c17.2-0.7,47.2-24.4,59.6-43.4c12.4-19,17.3-37.5,18.2-61.1
				c1.2-24-21-50-40.4-61.1c-25.7-14.6-52.9-8.7-77.8-1.3L917.6,588.9z"/>
			<path class="st4" d="M1366.8,883.5c-7.4,0-13.3-6-13.3-13.3v-6.2c-62.3-0.1-102.7-0.7-169.4-2c-7-0.1-12.8-5.7-13.1-12.8
				l-17.4-413.9h-4.8c-7.4,0-13.3-6-13.3-13.3V312.8c0-7.4,6-13.3,13.3-13.3h156.9c7.4,0,13.3,6,13.3,13.3V422
				c0,7.4-6,13.3-13.3,13.3h-0.3l-0.7,267.6l48.8,0.7v-10.3c0-7.4,6-13.3,13.3-13.3h90.8c7.4,0,13.3,6,13.3,13.3v176.8
				c0,7.4-6,13.3-13.3,13.3H1366.8z"/>
			<path class="st6" d="M1292,422l-0.8,294.1l75.5,1.2v-23.8h90.8v176.8h-90.8v-19.6c-70.5,0-112.6-0.7-182.5-2L1166.3,422h-17.6
				V312.8h156.9V422H1292z"/>
			<path class="st4" d="M1748.2,852c-2.4,0-4.9-0.7-7-2c-3.1-1.9-5.3-5-6.1-8.6l-20.1-96.5c-1.4-6.8,2.7-13.6,9.4-15.5l1.3-0.4
				l-9.5-46.5l-44.9,1l-4.3,29.2c4.8,2.2,8,7.1,7.8,12.6l-3,85c-0.1,3.6-1.7,6.9-4.3,9.3c-2.5,2.3-5.7,3.5-9,3.5c-0.2,0-0.4,0-0.6,0
				l-176.9-8.1c-7.3-0.3-12.9-6.4-12.7-13.7l2.7-90.4c0.1-3.6,1.6-7,4.3-9.4c2.5-2.3,5.7-3.5,9-3.5c0.2,0,0.4,0,0.7,0l23.9,1.2
				l56.8-209.9l-13.4-1c-6.9-0.5-12.3-6.2-12.4-13.1l-1.5-125.4c-0.1-7.3,5.7-13.3,13.1-13.5l256.2-5.3c0.1,0,0.2,0,0.3,0
				c6.8,0,12.6,5.2,13.3,12l11.5,112.4c0.7,7-4.2,13.4-11.1,14.5l-21.1,3.4l58.9,219.3l8.9-2.4c1.1-0.3,2.3-0.4,3.4-0.4
				c2.4,0,4.9,0.7,7,2c3.1,1.9,5.3,5,6.1,8.6l20.1,96.5c1.4,6.9-2.7,13.7-9.6,15.6l-143.6,39C1750.6,851.9,1749.4,852,1748.2,852z
				 M1678.5,561.5l13.5-0.6l-6.6-42L1678.5,561.5z"/>
			<path class="st6" d="M1582.8,477.2l-29.5-2.2l-1.5-125.4l256.2-5.3l11.5,112.4l-35.7,5.8l66.1,246.4l21.7-5.8l20.1,96.5
				l-143.6,39l-20.1-96.5l13.2-3.8l-14.1-69.5l-67.3,1.5l-8,53.8l9.7,0.6l-3,85l-176.9-8.1l2.7-90.4l34.6,1.7L1582.8,477.2z
				 M1679,473.5l-16.3,102.1l44.7-2L1691.5,473L1679,473.5z"/>
			<path class="st4" d="M2080.3,838.1c-0.6,0-1.3,0-1.9-0.1l-147.5-21.6c-3.5-0.5-6.7-2.4-8.8-5.2c-2.1-2.8-3-6.4-2.5-9.9l12.2-83.1
				c0.5-3.5,2.4-6.6,5.2-8.8c2.3-1.7,5.1-2.6,8-2.6c0.6,0,1.3,0,1.9,0.1l6.3,0.9l17.1-121.8l-85.8-158.3l-20.7-0.6
				c-7.2-0.2-12.9-6.1-13-13.2l-0.5-74c0-3.6,1.4-7.1,4-9.6c2.5-2.4,5.8-3.8,9.3-3.8c0.1,0,0.3,0,0.4,0l157,4.6
				c7.2,0.2,12.9,6.1,12.9,13.2l0.5,74c0,3.1-1.1,6.2-3.1,8.6l27,57.1l47.9-51.1c-1.4-2.5-2-5.4-1.6-8.2l9.4-73.9
				c0.9-6.7,6.6-11.6,13.2-11.6c0.5,0,1,0,1.5,0.1l156,17.7c3.5,0.4,6.8,2.2,9,5s3.2,6.4,2.8,9.9l-9.1,74
				c-0.8,6.7-6.6,11.7-13.2,11.7c-0.5,0-1,0-1.5-0.1l-24.9-2.8l-139.4,152L2091.2,728l3.2,0.5c3.5,0.5,6.6,2.4,8.8,5.2
				c2.1,2.8,3,6.4,2.5,9.9l-12.2,83.1C2092.5,833.3,2086.8,838.1,2080.3,838.1z"/>
			<path class="st6" d="M2012.5,418.1l42.2,89.5l74.9-79.9l-11.7-1.1l9.4-73.9l156,17.7l-9.1,74l-31.7-3.5l-146.7,160l-19.7,138.5
				l16.3,2.4l-12.2,83.1l-147.5-21.6l12.2-83.1l19.6,2.9l19.6-139.4l-91.5-168.9l-28.4-0.8l-0.5-74l157,4.6l0.5,74L2012.5,418.1z"/>
		</g>
	</g>
	<ellipse class="st6" cx="440.6" cy="193.7" rx="59" ry="22.5"/>
	<ellipse class="st6" cx="345.1" cy="192.2" rx="13.5" ry="8"/>
</g>
<g>
</g>
<g>
</g>
<g>
</g>
<g>
</g>
<g>
</g>
<g>
</g>
</svg>
