<?xml version="1.0" encoding="utf-8"?>
<!-- Generator: Adobe Illustrator 25.2.1, SVG Export Plug-In . SVG Version: 6.00 Build 0)  -->
<svg version="1.1" id="Camada_1" xmlns="http://www.w3.org/2000/svg" xmlns:xlink="http://www.w3.org/1999/xlink" x="0px" y="0px"
	 viewBox="0 0 180.5 398.3" style="enable-background:new 0 0 180.5 398.3;" xml:space="preserve">
<style type="text/css">
	.st0{fill:#1D3D0C;}
	.st1{fill:#995336;}
	.st2{opacity:0.4;fill:#5F4323;}
	.st3{opacity:0.4;}
	.st4{fill:#68361D;}
	.st5{opacity:0.5;fill:#995336;}
	.st6{fill:#628D00;}
	.st7{fill:#B5CE34;}
	.st8{fill:#4B7300;}
	.st9{fill:#38632F;}
	.st10{fill:#94C400;}
</style>
<g>
	<g>
		<g>
			<path class="st0" d="M132.5,263c0,0.5-0.1,0.9-0.2,1.4c-0.2,1-0.4,2-0.7,3c-1.9,5.4-5.1,10-7.3,15.2c0,0-0.1-0.1-0.1-0.1
				c-0.8-3-3.5-5.4-4.8-8.3c-1.5-3.3-0.4-9.9,0.2-13.4c1-5.8,3.4-12.4,7.1-17.1C129.7,249.8,133,256.3,132.5,263z"/>
			<g>
				<g>
					<path class="st1" d="M89,127c1.8-5,3-10.3,6.7-14.3c1.4-1.5,4.6-2,5.1,0.8c1.1,6.2-2.8,12.6-5,17.9
						c-3.9,9.7-7.2,19.7-11.2,29.4c-4.4,10.6-9.9,20.8-14.7,31.2c-5.1,10.9-7.4,22.1-9.3,34.1c-3.4,21.5-5.9,42.6-5,64.7
						c0.5,11.7,1.5,23.3,2.8,35c0.6,5.7,1.2,11.2,1.4,16.9c0.1,2.4,0.1,4.9,0,7.3c0,2.3,0.7,3.6,1.8,4.2c4.8-3.9,9.3-8,13.9-12.2
						c13.7-12.7,32.3-28.4,36.4-47.6c3.9-18.2,0.9-38.4-2.5-57c-0.1-0.8-0.3-1.5-0.5-2.3c7.1,11.9,12.6,24.9,16.7,38.5
						c-0.2,5.8-0.4,11.6-0.2,17.3c0.1,2.9-0.6,6.1-0.9,9c-1.1,10.4,4,2.7,6.8-1.9c1,5.8,1.9,11.6,2.5,17.5
						c-8,11.6-16.6,22.7-25.1,34.1c-8.8,11.8-20.1,21.4-29.1,33.1c-10.4,13.5-15.1,29.3-17.8,46.2c-0.9,6-1.6,12.1-2.1,18.2
						c-0.8,6-1.4,12.1-2,18.2c-0.4,5-1.4,10-1.8,14.9c-0.4,4.9-0.7,9.7-0.9,14.6c-0.4,10.1-0.3,20.2-0.1,30.3
						c0.1,3.8,0.1,7.5,0.2,11.3c-0.6,13.6-1,27.3-0.7,40.8c0,1.5,0,3,0.1,4.5c-0.1,1.4-0.2,2.7-0.4,4.1c-3.9,38.4-4.2,77-2.4,115.5
						c1,21.7,2.5,43.3,4.9,64.9c-0.1,0.1-0.2,0.3-0.3,0.3c-4.1,4.6-11.2,8.5-17.6,8.4c-6.2-0.1-10.5-3.8-14.9-7.6
						c-0.5-18-1.2-36.1-1.4-54.2c-0.4-25.1,1.2-50.1,2.2-75.1c1.1-25.3,0.7-50.5-0.1-75.9c-0.8-25.5-1.6-51.1-1.1-76.6
						c0.6-25.2,3-50.3,5.1-75.4c3.6-43,4.4-86.2,9.3-129.1c2.3-19.6,6.3-39,8-58.6c2.2-24.2,0.4-48.8-0.7-73.3
						c-0.4-9.2,0.1-18.8,1.3-27.8c0.5-4.3,5.2-5.4,8.8-5.7c1.2-0.1,2.7,0.8,3.1,2c1.2,3.5,1.6,7.1,1.4,10.8
						c-0.4,8.2,1,16.2,1.3,24.5c0.2,5.9,0.7,11.9,0.4,17.8c-0.1,1.3-1.1,7.3-1,11.3c7.5-9.4,12.8-21.4,18-31.8
						C82.3,142.7,86,135,89,127z"/>
					<path class="st1" d="M25.6,694.5c-1,0.3-2.1,0.7-3.2,1c0.1-7.8,0.4-15.5,0.7-23.3c4.6,1.2,9.2,2.5,13.9,2.9
						c3.3,0.3,6.6,0.4,9.5-1.6c1.5-1,2.8-2.2,4.2-3.4c0.1,8.5,0.3,16.9,0.7,25.4c-1.4-0.7-2.8-1.6-4-2.7c-1.2-1.1-2.3-2.9-3.8-3.6
						c-2.5-1.2-5.6,0.5-8,1.5C32.3,692.1,29,693.4,25.6,694.5z"/>
					<path class="st1" d="M55.2,207.1c4.2,1.3,7.2-1.2,10.3-3.7c-2,6.6-3.4,13.3-4.6,20.3c-0.7-0.7-1.5-1.3-2.4-1.8
						c-1.5-0.7-3.5-0.2-5,0.3c-2.4,0.9-5.2,2.6-8,3.5c0.1-1.1,0.2-2.1,0.3-3.2c0.6-6.8,0.9-13.7,1-20.6
						C49.5,204,52.1,206.1,55.2,207.1z"/>
					<path class="st1" d="M79.5,382.8c-10.4,13.5-15.1,29.3-17.8,46.2c-0.9,6-1.6,12.1-2.1,18.2c-0.8,6-1.4,12.1-2,18.2
						c-0.4,5-1.4,10-1.8,14.9c-0.4,4.9-0.7,9.7-0.9,14.6c-0.4,10.1-0.3,20.2-0.1,30.3c0.1,3.8,0.1,7.5,0.2,11.3
						c-0.6,13.6-1,27.3-0.7,40.8c0,1.5,0,3,0.1,4.5c-0.1,1.4-0.2,2.7-0.4,4.1c-3.9,38.4-4.2,77-2.4,115.5c1,21.7,2.5,43.3,4.9,64.9
						c-0.1,0.1-0.2,0.3-0.3,0.3c-1.7,2-4,3.8-6.5,5.2c-0.2-2.3-0.5-4.7-0.7-7.1c-2.3-29-2.4-58.2-3.9-87.2
						c0.3-8.2,0.4-16.3,0.3-24.5c-0.1-14.7-0.4-29.3,0-44c0.4-14.7,0.8-29.5,1.2-44.2c0.8-29.5,1.7-59.1,4-88.5
						c1.2-15,3.3-29.7,5.8-44.5c2-12.2,2-25.6,8.4-36.6c7-11.9,17.9-20.9,28.7-29.2c1.2-0.9,2.3-1.9,3.4-2.8
						C91,369.7,84.9,375.9,79.5,382.8z"/>
					<path class="st1" d="M55.5,290.8c0.5,11.7,1.5,23.3,2.8,35c0.6,5.7,1.2,11.2,1.4,16.9c0.1,2.4,0.1,4.9,0,7.3
						c0,2.2,0.6,3.4,1.6,4.1c-0.6,3-0.8,6.1-0.8,9.2c0,7.1,1.3,14.3,0.6,21.4c-0.7,7.1-3.6,13.5-5.5,20.3c-1.5,5.3-2.1,10.9-4,16.2
						c-0.5-7.1,2.1-14.2,3.2-21.2c1.2-7.7,1.5-15.7,1.7-23.5c0.2-8-0.2-16-1.4-23.9c-1.2-7.8-3-15.5-4.4-23.3
						c-1.2-6.8-2-13.6-1.6-20.5c0.3-6.4,1.4-12.9,2-19.3c1.3-12.7,2.3-25.3,4-37.9c1.4-10.2,3.4-20.4,6.2-30.2
						c-0.3,1.6-0.6,3.2-0.8,4.9C57.1,247.6,54.6,268.7,55.5,290.8z"/>
					<path class="st2" d="M131.3,298.1c0.6,3.6,1.2,7.3,1.7,11c-3,4.1-6.4,7.5-10.6,8.9c0.7-4.4,1.5-8.7,2.6-12.9
						C126.3,305.9,129.3,301.2,131.3,298.1z"/>
					<path class="st2" d="M113.7,244.1c0.6,4.2,1.2,8.5,1.7,12.8c1.3,11.6,4.1,24.5,2.7,36c-2.8,24.2-21.1,40.4-35.8,52.9
						c-5.7,4.9-12.8,9.2-16.7,16.6c-1.3,2.5-1.9,5.5-2.2,8.7c-1.2-5.7-1.7-11.5-1.5-17.2c4.6-3.8,9-7.8,13.5-11.9
						c13.7-12.7,32.3-28.4,36.4-47.6c3.9-18.2,0.9-38.4-2.5-57c-0.1-0.8-0.3-1.5-0.5-2.3C110.5,238.1,112.2,241.1,113.7,244.1z"/>
					<path class="st2" d="M80.8,156.8c-6.2,14.7-14.8,27.4-21.3,41.9c-0.1-7,1.6-13.4,3.3-19.8c6.2-8.8,10.9-19.3,15.6-28.5
						C82.3,142.7,86,135,89,127c1.8-5,3-10.3,6.7-14.3c0.9-1,2.5-1.5,3.7-1c-2.2,5.9-5.3,11.3-7.6,17C88,138,84.8,147.6,80.8,156.8z
						"/>
					<path class="st2" d="M120.1,318.6c-0.1,0.2-0.1,0.3-0.2,0.5c0,0.1,0,0.2,0,0.3c-1,13.2-9.7,23.4-16.9,31.5
						c-4.3,4.9-9.4,9.1-14.6,13c-2,2.6-3.9,5.4-5.6,8.1c-2.2,3.7-6.6,7.1-7.7,11.7c-0.2,0.9-3.2,4.5-3.1,2c0.2-5.7-1.6-10,0.5-15.4
						c2.1-5.6,6-9.3,9.8-12.9c12.1-11.6,27-20,34.9-37c0.1-0.3,0.8-1,1.5-1.4c0.1-0.2,0.3-0.4,0.4-0.6
						C119.5,317.6,120.5,317.3,120.1,318.6z"/>
					<path class="st2" d="M55.4,247.3c0,9.7-3.3,18.1-2.4,28.1c0.8,10,1.3,19.2,1.3,29.2c0,9.2,0.3,18.2,0.5,27.4
						c0.2,8.5-3.8,16.6-4.4,25c0,0.5-1.3,2.1-1.4,1.3c-0.9-5.8-0.5-11.9,0.1-17.6c0.9-8.2-0.9-18.1-1-26.6
						c-0.4-23.1,4.7-43.7,6.3-66.1C54.5,247.6,55.4,246.6,55.4,247.3z"/>
					<g class="st3">
						<path class="st4" d="M63.6,394.4c-0.1-12.4-2.4-24.9-3-37.3c2.6,12,5.1,24,5.3,36.5c0.1,7.7-1.7,15.5-3,22.9
							c-1.1,6-4.3,13.3-5.2,20C57.5,422,63.7,409.1,63.6,394.4z"/>
					</g>
					<path class="st5" d="M63.7,388.7c-0.1-4,0.2-8.1,0-12.1c-0.1-2.6-0.8-5.2-1.1-7.8c-0.4-3.4-0.6-6.7-0.6-10.1
						c0-1.6,0-3.3,0.1-4.9c4.6-3.7,8.9-7.7,13.4-11.8c13.7-12.7,32.3-28.4,36.4-47.6c3.9-18.2,0.9-38.4-2.5-57
						c-0.1-0.8-0.3-1.5-0.5-2.3c7.1,11.9,12.6,24.9,16.7,38.5c-0.2,5.8-0.4,11.6-0.2,17.3c0.1,2.9-0.6,6.1-0.9,9
						c-1.1,10.4,4,2.7,6.8-1.9c1,5.8,1.9,11.6,2.5,17.5c-7.1,10.3-14.7,20.2-22.2,30.2c0.1-0.1,0.1-0.3,0.2-0.4
						c1.8-5,4.4-11.5,1.9-16.7c-0.1-0.2-0.3-0.3-0.5-0.2c-2.8,0.9-5.4,2.4-7.8,4.1c-8.8,6.5-15.6,15.2-23.9,22.3
						c-4.1,3.5-8.4,7.2-11.2,11.9c-2.8,4.7-3.9,10.3-4.7,15.7c-0.6,4.2-1.1,8.4-1.5,12.6C63.6,393,63.7,390.3,63.7,388.7z"/>
					<path class="st5" d="M89,127c1.8-5,3-10.3,6.7-14.3c1.4-1.5,4.6-2,5.1,0.8c1.1,6.2-2.8,12.6-5,17.9
						c-3.9,9.7-7.2,19.7-11.2,29.4c-3,7.2-6.5,14.2-9.9,21.3c-0.1-0.2-0.4-0.3-0.7-0.1c-9.1,11.4-14.3,25.5-17.8,39.5
						c-3.9,15.6-6.1,31.6-7.6,47.6c-1.6,17-2.6,33.9-4.6,50.9c-2.6,21.6-5.6,43.2-7.3,64.9c-2.2,27.4-1.9,55-2.1,82.4
						c-0.3,27.8-0.4,55.6-0.5,83.3c-0.3,54.7,0.1,109.5-1.7,164.2c-0.6,18.9-1.7,38.3-1.8,57.6c-2.3-1.4-4.5-3.2-6.6-5.1
						c-0.5-18-1.2-36.1-1.4-54.2c-0.4-25.1,1.2-50.1,2.2-75.1c1.1-25.3,0.7-50.5-0.1-75.9c-0.8-25.5-1.6-51.1-1.1-76.6
						c0.6-25.2,3-50.3,5.1-75.4c3.6-43,4.4-86.2,9.3-129.1c2.3-19.6,6.3-39,8-58.6c2.2-24.2,0.4-48.8-0.7-73.3
						c-0.4-9.2,0.1-18.8,1.3-27.8c0.5-4.3,5.2-5.4,8.8-5.7c1.2-0.1,2.7,0.8,3.1,2c1.2,3.5,1.6,7.1,1.4,10.8
						c-0.4,8.2,1,16.2,1.3,24.5c0.2,5.9,0.7,11.9,0.4,17.8c-0.1,1.3-1.1,7.3-1,11.3c7.5-9.4,12.8-21.4,18-31.8
						C82.3,142.7,86,135,89,127z"/>
				</g>
			</g>
			<g>
				<path class="st6" d="M123.5,278c0.9-5.9,1.9-11.3,4-16.9c3.4-5.1,7.4-10.1,11.9-14.4c6.3,3,7.2,13.9,6.5,20.3
					c3.3-2.9,7.4-5.4,9.6-9.2c0.2-0.4,1.6-1.7,2-0.8c4.1,11.4,1.3,23-6.8,31.3c3-1.3,6.1-2.1,9.2-2.8c6-1.4,14.3-1.3,20.4,0.2
					c0.1,0,0.2,0.1,0.2,0.3c-0.1,15.7-23.1,24.6-38.4,24.1c9.4,5,19.9,8.8,22,20.9c-8-0.6-16.2-2.4-23.2-6c-5.3-4.2-7.2-10-6.4-16.7
					c0.1-0.5,0.5-1.1,1.1-1.6C131.4,297.6,121.9,288.1,123.5,278z"/>
			</g>
			<path class="st7" d="M117.4,266.4c4.1,5.5,6,13.5,4.7,20.3c3-4.2,6.6-8,9.8-12c2.6-2,5.1-4.2,7.7-6.2c0.6,4-0.1,12.6-0.2,14.2
				c-0.3,6.1-1.1,12.6-3.9,18.1c4.7-1.4,9.4,0.1,13.5,2.6c7.2,6,14.1,12.4,19.1,20.2c-2.7-0.6-10.1-1.3-11.5-1.4
				c-6.8-0.5-15-1.2-20.2-6.2c0.7,6.9-1.4,14-3.1,20.6c-0.5,1.9-1,4.1-1.7,5.5c-7.2-5.8-12-13.4-14.3-22.2c0.6-4.9,2.8-9.3,6.7-12.7
				c-4.2-2.4-7.2-7.7-6-12.6c-3.2,3.3-2.7,2.5-6.6,0.3c-3.3-1.9-6.8-6-8.7-9.3c-0.7-1.2-1.1-2.4-1.5-3.6c-0.1-2.1,0-4.1,0.1-6.1
				c0.1-0.1,0.2-0.3,0.2-0.5c1.2-7.4,2.1-14.6,4.6-21.5C109.8,258,114.7,261.4,117.4,266.4z"/>
			<path class="st0" d="M101,248.7c0.2,0.2,0.4,0.5,0.6,0.8c0.4,0.6,0.8,1.1,1.1,1.8c1.7,3.4,2.4,7.2,3.8,10.7c0,0-0.1,0-0.1,0
				c-1.8-1-4.2-0.9-6.3-1.7c-2.3-0.8-5-4.5-6.3-6.4c-2.3-3.2-4.3-7.5-4.8-11.5C93.4,243.8,98.1,245.3,101,248.7z"/>
			<g>
				<path class="st6" d="M103.9,260.2c-2.4-3.2-4.5-6.3-6.2-9.9c-0.8-4.1-1.3-8.3-1.3-12.5c4.4-1.6,10.1,3.2,12.8,6.6
					c0.2-3,0.9-6.1,0.2-9c-0.1-0.3,0-1.6,0.6-1.3c7.4,3.4,11.6,10.3,11.7,18.1c0.8-2,1.9-3.9,3.1-5.8c2.2-3.5,6.2-7.4,9.8-9.7
					c0.1,0,0.2,0,0.2,0c7.4,7.5,0.8,22.7-6.7,29.8c6.8-2.1,13.7-5.3,20.4-0.6c-4.1,3.6-8.8,6.6-13.9,8.2c-4.5,0.6-8.2-1.3-11-4.9
					c-0.2-0.2-0.3-0.8-0.2-1.3C117.1,265.7,108,265.7,103.9,260.2z"/>
				<path class="st8" d="M96.9,253.8c4.6,0.6,9.3,3.5,11.9,7.4c-0.6-3.4-0.7-6.9-1.1-10.4c0.3-2.2,0.4-4.4,0.7-6.6
					c2.2,1.6,6,6,6.7,6.8c2.8,3,5.5,6.5,6.8,10.5c1.6-2.9,4.5-4.4,7.7-5.2c6.3-0.6,12.6-0.8,18.8,0.5c-1.6,1-5.4,4.2-6.1,4.8
					c-3.5,3-7.7,6.6-12.6,6.8c3.6,3,6,7.3,8.3,11.3c0.7,1.2,1.5,2.4,1.8,3.4c-6.2,0.7-12.1-0.6-17.4-3.7c-2.1-2.6-3.1-5.8-2.9-9.2
					c-3.1,0.8-7.1-0.2-8.9-3.1c0,3.1-0.1,2.5-3,3.3c-2.5,0.7-6.1,0.4-8.6-0.3c-0.9-0.2-1.7-0.6-2.4-1c-1-0.9-2-1.9-2.9-2.9
					c0-0.1-0.1-0.2-0.1-0.3c-3-4.1-6-7.9-8.1-12.4C89.2,253.5,93.1,252.8,96.9,253.8z"/>
			</g>
			<g>
				<path class="st9" d="M0.9,55.1c-3.5,0.3,4.2,7.5,4.9,8.3c3,3.3,6.2,6.9,10.4,8.8c-3.6,2.4-6.5,5.6-9.4,8.8
					c-3.9,4.3-0.4,2.9,2.8,4.1c6.8,2.7,9.9,9.7,17.8,10.6c-3.1,2.7-5.1,6.3-7.8,9.3c-2.8,3.2-5.8,3.3-2,6.7
					c5.2,4.6,9.3,12.3,17.1,12.9c-4.2,4.8-5.9,11.4-8,17.3c-0.8,2.2,15.1-1.2,17.1-2c-2,8.4,3.7,13.8,5.1,21.5
					c0.9,5.3,1.9,3.2,5.2,0.5c2.9-2.4,6.3-4.5,8.8-7.4c0.5,4.5,1.8,8.8,2.3,13.3c0.4,3.5,4.3-1.8,4.8-2.2c4.3-3.7,10.7-5.1,13.9-9.9
					c1.9,7.5,6.8,13.3,12.8,17.7c2.7,2,5.5,4,7.6,6.5c2,2.3,3-3.8,3.2-4.4c3.5-10.7,11.7-23,8.3-34.7c1.8,1.4,16.3,8.9,17.2,7.4
					c1.4-2.4-1.7-12.7-2.9-15.3c6.7,3.9,14.1,3.1,21.5,3.2c1.6,0,8.9,1.8,9.8,0.4c0.9-1.4-1.2-4.9-1.7-6.2
					c-2.9-8.5-5.5-21.2-14.9-25.1c3.8-1,7.6-2.7,11.6-3c-1.3,0.1,7.6-0.4,3.6-1.7c-6.6-2.1-11.1-8.2-18.7-9.5
					c7.3-7.5,7-19,12.5-27.6c0.9-1.3-1.3-3-2.3-1.7c-1.5,2-3.4,3.5-5.5,4.9c-3.5,2.2-7.3,3.6-10.9,5.4c7.9-8.7,3.1-19.5,7.1-29.4
					c1.3-3.1,4.6-8-1.3-4c-4.3,2.9-9.2,4.8-13.7,7.3c1.9-8.5-4.5-16.6-4.5-25c0-5.7-4.4-2.2-8.1-0.7c-4.6,1.8-9.2,3.6-13.3,6.4
					c-0.3-4.4-3-8.3-5-12c-0.9-1.7-2.6-10.1-3.7-10.7C91.6,3,83.5,7.3,81.9,8c-3.1,1.2-5.5,2.9-7.8,5.3c-0.7-4.1-1.8-8.2-1.6-12.4
					c0.1-3.3-5.8,4-6.3,4.4C60.1,10.6,54.1,15.8,51.7,24c-5.6-4.9-14.5-4-21-6.9c-3.6-1.6-5-2.8-4.1,2.3c0.7,4.6-0.4,9.4,1.6,13.8
					c-6.8-1.7-14,2.6-20.1,5c-6.6,2.5,5.2,7.8,8.3,10C10.8,49.5,6.6,54.5,0.9,55.1C-0.1,55.1,5.9,54.6,0.9,55.1z"/>
				<path class="st8" d="M108.4,143.3c0.1,1.2,0.9-2.1,0.5-1.6c1.2-1.6,5.3,4.2,5.7,5c1.8,4.1,0.9,8.5,2.3,12.2
					c1.3,3.2-5.3-1.8-5.5-1.9C106.4,152.7,108.7,148.9,108.4,143.3C108.4,143,108.6,146.8,108.4,143.3z"/>
				<path class="st8" d="M134.4,112.2c-0.7-1.7-3.1-0.4-2.7,1.2c0.4,1.4,0.8,2.8,1.2,4.3c0.9,2.8,2.2,5.5,4.5,7.3
					c2,1.6,16.8,4.1,18,1.4c-0.3,0.5-2.5-3.4-2.7-3.8c-1.3-2.5-2.5-5.3-4.5-7.3C146.1,113.2,134.5,112.5,134.4,112.2
					C133.7,110.6,134.4,112.2,134.4,112.2z"/>
				<path class="st8" d="M139.2,127.9c-5.3-3.5-10.3-5.8-12.4-12.3c-1.7-4.9-6-10.1,0.6-10.5c15.6-1,18.9,15.4,17.3,27.7
					C144.9,131.1,140.2,128.5,139.2,127.9C135.4,125.3,142.2,129.9,139.2,127.9z"/>
				<path class="st8" d="M106.1,45.7c-1.5-3.8-2.4-8.6-0.3-12.3c0.6-1.2,6.8-8.7,7.9-8.3c1.3,0.5,0.4,14.5-0.6,16.3
					c-1,1.9-3,4.9-4.9,6C106.7,48.2,105.5,47.1,106.1,45.7C104.8,42.5,106,45.9,106.1,45.7z"/>
				<path class="st8" d="M114.9,40.9c-2.2-1.7,4.9-6.7,6.3-7.6c0.6-0.4,9-5.2,7.1-2.6c-2.8,3.8-3.8,8.4-8.1,11.1
					C118.9,42.7,111.6,43.6,114.9,40.9C114.3,40.3,114.8,41,114.9,40.9z"/>
				<path class="st6" d="M53.2,61c-2.4-1.7,1.7,9.2,2.2,10.3c2.2,5.1,7.5,8.5,13,8.9c-0.7,1.4-5.4,13.3-3.6,13.7
					c0.7,0.2,4.7-2.6,5.7-2.9c2.9-0.9,6-1.4,8.8-2.5c-1.6,4.1,0.1,8.7,2.3,12.3c0.7,1.2,4.3,10.5,4.4,10.5c0.2,0.1,5.7-9,6.5-10.1
					c2.5-3.2,4.1-6.8,4.2-11c2.9,4.2,7.5,7.2,12.7,6.7c2.5-0.3,4.9-1.3,7.4-0.9c1,0.6,2.1,1,3.3,1c3.3-1.5-10.8-16.1-13.3-17.3
					c2.6-1.1,8-13.4,6.5-15.8c-1.1-1.8-9.9-0.3-11.6,0.1c-3.8,0.8-7.1,3-9.5,6c-0.2-2.9-9.8-20.5-13.1-18.9
					c-1.1,0.5-4.6,14.4-4.9,16.3C68.4,62.5,59.4,65.3,53.2,61C52.3,60.3,58.8,64.9,53.2,61z"/>
				<path class="st6" d="M99.3,101.6c2.9-3.4,10.4,8.8,10.8,11.3c0.4,2.2-5.2,19.1-6.7,18.6c-0.7-0.2-5.3-10.8-6.1-12.3
					C94.2,113.4,95,106.6,99.3,101.6C100.1,100.6,96.3,105,99.3,101.6z"/>
				<path class="st6" d="M116.9,116.8c-0.7-3.4,2.9-0.8,3.7-0.2c3,2.6,6.4,6.5,7.4,10.4c0.8,3,0,6.2-0.9,9.1c-0.2,0.8-1.8,8.5-2,8.5
					c0.5-0.1-8.1-12.7-8.6-13.6C114.7,127.6,112.6,119.3,116.9,116.8C116.9,116.7,113.4,118.8,116.9,116.8z"/>
				<path class="st6" d="M89.8,23.3c1.5-2.5,5.2,9.8,5.7,11.5c2.1,7-3.4,10.3-7.1,14.3c-3.3,3.6-5.9-8.3-5.7-10.2
					C83.5,33.2,87,28.2,89.8,23.3C90,22.9,85.4,30.8,89.8,23.3z"/>
				<path class="st6" d="M100.8,46.2c1-4,2.4,3.8,2.3,3.5c1.4,5.5-0.3,7.9-4.3,11.3c-3.1,2.6-6.7,4.1-5.9-1.9
					C93.6,53.9,98,50.2,100.8,46.2C100.8,46.1,97.5,50.8,100.8,46.2z"/>
				<path class="st6" d="M119.7,70.4c1.4-0.7,12.1-5.4,13-4.4c1.1,1.4-4.8,9.9-5.9,11c-2.9,3.1-8.9,5.3-12.7,2.8
					C109.9,77.1,117.7,71.3,119.7,70.4C123.5,68.5,116.9,71.7,119.7,70.4z"/>
				<path class="st6" d="M119.5,86.5c2.3-2.7,6.3-4.5,9.8-4.6c1.1,0,10.1-1.3,10.1-1.4c0.8,0.6-1,4.7-1.2,5.1
					c-2.1,3.3-5.3,5.7-9.1,6.9c-2.5,0.8-5.6,0.6-8-0.7C120,91.3,116.3,86.9,119.5,86.5C121.5,84.2,118.7,86.6,119.5,86.5z"/>
				<path class="st6" d="M125.5,100.4c2.7-3.7,8.4-0.7,11,1.6c1.4,1.3,9.4,11.5,9,12.6C144.8,116.6,117.2,112.1,125.5,100.4
					C125.5,100.4,122.7,104.3,125.5,100.4z"/>
				<path class="st6" d="M63.3,119.3c3.6-4.8,1.4-11.6,5.2-17c2.7-3.7,7.6-10.1,9-2c1,5.7-0.7,12-5.4,15.7c-1.8,1.4-4.1,2.8-6.2,3.4
					C65,120.5,61.8,121.3,63.3,119.3C66.1,115.6,62.7,120.1,63.3,119.3z"/>
				<path class="st10" d="M62.8,29.5c-1.6-2.7-1.1,3.3-0.8,4.1c0.5,4-0.1,8-0.7,12c-0.8,5.8-1.4,11.8,1.5,17.1
					c1.7,3.1,5,6.8,8.1,8.6c3.6,2.1,3.1,2.8,6.1-0.3c-1.1,4.5,1.7,9.4,5.5,11.6c-4.9,4.3-7.1,10.4-6.1,16.8c0.9,6,6.1,8.9,8.8,13.9
					c3.5,6.6,4.7,0.8,5.9-3.7c1.6-6.1,3.5-12.6,2.9-18.9c4.8,4.6,12.4,5.2,18.6,5.7c1.5,0.1,11.6,1.1,11.5,1.6
					c0.8-2.5-10.4-12.5-12.3-14.2c-4.9-4.4-11.7-9.3-18.6-7.2c2.6-5.1,3.3-11.1,3.6-16.7c0.1-1.9,1.2-14.5-0.7-15
					c-0.3-0.1-5.1,6.2-5.9,7.2c-3.1,3.9-6.6,7.5-9.4,11.5c1.3-6.2-0.5-13.7-4.3-18.7C73,38.7,66.2,35.2,62.8,29.5
					C62.3,28.7,63.1,30.1,62.8,29.5z"/>
				<path class="st10" d="M52.1,85.3c-2.5,0.6,3.8,2.6,3.5,2.5c3,1.2,6.2,2.3,9.5,2.3c6.1,0,10.3-4.5,10.8-10.4
					c0.3-4.2-9.5-4.6-11.7-3.9C59,77.4,57.3,84,52.1,85.3C51.4,85.5,56.4,84.2,52.1,85.3z"/>
				<path class="st6" d="M92.3,105.3c2.2-1.8-7.3-0.1-8,0c-2.7,0.2-5.6,0.3-8.2,1.2c-1.2-2.2-3.4-3.1-5.7-3.6
					c-1.2-0.3-13.1-2.3-10.6-0.5c3.3,2.4,3.7,6.7,5.2,10.2c-7.8-2.5-14.1,4-19.7,8.3c-1.7,1.3,13.5,4.8,16.2,4.2
					c-3.4,5.4,1,12.6,2.9,17.7c1.7,4.6,3.2,0.7,5.5-1.7c2.3-2.4,4.7-4.8,6.1-7.8c3.2,3.8,7.9,5.2,12.6,6.1c0.7,0.1,5.3,1.2,5.7,0.8
					c1.9-1.9-8.4-16.7-10.5-18.1C90.3,118.7,87.1,109.6,92.3,105.3C93,104.7,89.1,108,92.3,105.3z"/>
				<path class="st6" d="M113.1,123.2c2.1,0.4-7,2.8-7.3,3c-4.9,2.2-9.9,3.3-13.8-1.4c-3.7-4.4,4.5-6.5,7.8-6.8
					C105.5,117.5,108,122.1,113.1,123.2C114.1,123.4,109,122.3,113.1,123.2z"/>
				<path class="st6" d="M79,143.9c4.5,3.2,2.1,9.3-1,12.3c-0.6,0.6-8.5,8.3-8.5,8.3c-1.6-0.5-0.3-12.5,0.5-14
					C70.8,148.9,76.9,142.5,79,143.9C81.5,145.7,78.5,143.6,79,143.9z"/>
				<path class="st10" d="M89.8,116.5c4.3,1.3,7.1,5.2,9.5,8.7c0.2,0.3,6.3,8.5,2.4,7.2c-5.4-1.8-11.6-1-17.2-1.8
					c-5.6-0.9-11.3-3.3-11.1-9.8c0.1-2.5,3-5.5,5.6-6C82.6,114,86.4,115.4,89.8,116.5C96,118.3,86.3,115.4,89.8,116.5z"/>
				<path class="st10" d="M71.4,121.9c-0.5,5.9-1.9,9.7-7,13.4c-1.4,1-13.2,8.7-14.1,7.7c-1.8-1.9,4.4-14.4,5.6-16.3
					C57.3,124.4,72,115.6,71.4,121.9C71.3,122.6,71.5,120.9,71.4,121.9z"/>
				<path class="st10" d="M65.3,97.8c2.9,3.7,7.9,5.6,9.1,10.5c0.4,1.5-0.9,8.3-2.5,7.8c-4.5-1.3-7.1-6.1-7.7-10.4
					C64,104.6,64.7,97,65.3,97.8C67.5,100.6,64.8,97.2,65.3,97.8z"/>
				<path class="st10" d="M91.6,140.8c2.7,2,4.3,5,6.4,7.5c-0.8-0.9,3.9,4.7,0.6,3.1c-2.6-1.2-7-1-10-2.2c-3.8-1.5-8.1-4.3-7.5-9
					c-0.9-0.7-1.5-2.3-0.4-3.2C83,135.3,89.8,139.5,91.6,140.8C94.9,143.2,88.9,138.8,91.6,140.8z"/>
			</g>
		</g>
		<path class="st2" d="M36.4,738.1c1.7,12.3,3.5,24.5,5,36.7c-0.5,0.1-1,0.1-1.5,0.2c-1.5-12.2-3.1-24.3-4.1-36.6
			C35.8,738.2,36.4,737.9,36.4,738.1z"/>
		<path class="st2" d="M26.6,626c1.3,6,1.1,12.1,1.3,18.2c0.3,6.6,0.9,13.3,1.3,19.9c0.4,6.6-0.4,13.5-0.6,20.1
			c-0.2,6.5-0.4,12.9-0.1,19.4c0.3,6.6,0.1,13-0.3,19.6c-0.4,6.7,0.4,13.3,0.9,20c0.6,9.6,0,19.3,0.5,28.9c-0.3-0.2-0.7-0.4-1-0.7
			c-0.7-8.5-0.4-17.1-1.1-25.5c-0.6-6.6-1.6-13.2-1.5-19.8c0.1-6.5,0.6-13,0.3-19.5c-0.5-13.2,0.5-26.2,0.8-39.4
			c0.1-6.6-0.1-13.6-0.8-20.2c-0.8-6.8,0.6-13.7-0.3-20.5C25.9,626.2,26.5,625.7,26.6,626z"/>
		<path class="st2" d="M31.6,491c1.8,12.4,2.8,25.1,4.2,37.6c1.5,13,0.5,26.2,0.8,39.2c0.2,6.9-0.3,13.7,0,20.6
			c0.3,7.5,1.2,15,1.8,22.5c1.2,14.3,2.6,28.6,3.6,43c1,13.8,1.9,27.6,2.3,41.4c0.2,6.6,0.6,13.2,0.6,19.8c0,7,0.6,13.9,0.9,21
			c0.4,12.2,1.2,24.5,2.1,36.8c-0.8,0.4-1.5,0.7-2.3,1c-0.9-13.7-1.6-27.4-2.6-41c-1-13.6-0.8-27.3-1.4-41
			c-0.6-13.8-1.4-27.7-2.4-41.6c-1-14.4-2.3-28.8-3.5-43.2c-0.5-6.9-1.3-13.8-1.4-20.8c-0.1-7.3,0.5-14.6,0-22
			c-0.4-5.4,0.3-10.9,0.3-16.3c0-6.7-0.1-13.4-0.8-20.1c-1.3-12.1-2-24.2-3.2-36.3C30.7,491.2,31.6,490.6,31.6,491z"/>
		<path class="st2" d="M34.1,372.3c-0.3,10.7-2,21.3-1.8,31.9c0.1,10.9-1.4,21.7-2.3,32.5c-0.5,6.1-2.5,11.9-2.7,18
			c-0.2,5.5-0.6,11-0.6,16.6c-0.1,10.3-1.2,21.9,1.5,31.9c0,0.1-0.3,0.3-0.3,0.2c-3.2-9.6-2.7-21.1-2.9-31.1
			c-0.3-10.7,0.5-20.8,2.5-31.3c1-5.1,1-10.8,1.5-16c0.7-6.6,1.5-13.1,1.6-19.7c0.2-11,2.1-21.9,3.1-32.8
			C33.7,372.4,34.1,372.2,34.1,372.3z"/>
		<path class="st2" d="M46.4,349.4c-2.5,1.5-3.9,6.8-4.9,9.3c-2,5.2-1.1,11.7-1.6,17.1c-1.4,13.8-2.3,27.9-5.3,41.4
			c-3.2,13.9-5.1,27.1-3.4,41.3c1.6,13.3,3.2,27,7.5,39.8c0.1,0.2,0.2,0.2,0.4,0.2c7.4-2,6.4-13.9,8-19.4c3.7-12.3,2.5-26,5-38.6
			c1.2-6.1,2.7-12.2,3.1-18.5c0.4-6.2-0.4-12.7,0.7-18.8c0.9-5.1,1.6-10.5,1.1-15.7c-0.3-2.8-0.5-5.6-0.9-8.4
			c-0.4-2.5-1.2-4.7-0.3-7.3c0.1-0.2-0.4,0.1-0.5,0.2c-0.8,2.2-0.4,3.7-0.1,5.9c0.4,2.9,0.6,5.7,0.8,8.6c0.5,5.9-0.4,11.4-1.3,17.2
			c-0.7,5.3-0.7,10.6-0.9,15.9c-0.3,6.4-1.6,12.4-3,18.6c-1.3,5.9-1.9,11.8-2.7,17.7c-0.6,5.3-1.6,10.8-1.8,16.1
			c-0.2,5.8-2.2,11.6-3.1,17.4c-0.2,1.6-2.7,10.1-4.2,5.3c-0.7-2.3-1.4-4.7-2-7c-3-11.8-4.2-24.6-4.7-36.7
			c-0.3-6.7,0.6-13.1,1.7-19.4c-0.4,8.4-0.1,17.1,1.6,25.4c0.8,3.8,1.7,7.5,3.2,11.1c0.5,1.3,0.7,3.4,2.1,4.1
			c0.5,0.2,1.2-0.5,1.4-0.8c1-1.9,1.1-4.2,2-6.3c0.7-1.7,1.1-3.6,1.5-5.5c1-5.5,1-11.3,2.3-16.7c2.6-10.7,1-21.4,2.5-32.2
			c0.6-4.6,1.9-9.9,1.7-14.6c-0.3-5.2-0.2-10.4-0.4-15.6c-0.2-6.1-1.1-12-1.9-18c-0.6-4.4-1.1-8.9-2.4-13.1
			C47.2,349,46.6,349.3,46.4,349.4z M45.1,354.3c0.3-0.5,0.5-1.6,0.8-2.5c1.3,4.4,1.7,9,2.3,13.5c0.8,5.4,1.6,10.8,1.7,16.3
			c0.2,5.1,0.5,10.3,0.6,15.4c0.2,5.1-1.1,10.8-1.9,15.8c-0.7,4.7-0.3,9.5-0.3,14.2c0,5.6-0.7,11-2,16.4c-1.1,4.9-1.2,10.2-2.1,15.2
			c-0.5,2.5-0.8,5.6-2.1,7.9c-0.6,1.1-0.7,2.2-0.9,3.3c-0.9-1.6-1.7-4.4-1.9-5c-0.8-2.4-1.5-4.8-2-7.3c-1.1-5.4-1.7-10.9-1.8-16.4
			c-0.2-11.7,1.4-22.2,5.7-33.1c0.5-1.2,0.6-2.7,1.1-4c0.1-0.4,1.1,2.8,1.1,2.9c0.3,0.8,0.4,1.6,0.3,2.5c0.3,4.9,0.9,9.6,0.9,14.5
			c0,5.1,0.9,10,0.2,15.1c-0.5,4.2-1.3,7.9-2.8,11.8c-1.4-4.1-2.2-8.3-2.1-12.7c0-3.5-0.4-7.1,0.5-10.4c0.5,1.6,0.5,3.3,0.5,4.9
			c0,0.7,1.8-0.4,1.8-1.1c0-2.3,0.1-4.9-1.4-6.9c-0.4-0.6-1.6,0.6-1.7,0.9c-1.9,4-1.3,7.5-1.3,11.9c0.1,5.5,1,10.4,2.8,15.6
			c0.2,0.6,1.2-0.3,1.3-0.6c3.8-7.9,4.9-16.7,4.1-25.4c-0.4-4.7-0.2-9.4-0.8-14.1c-0.5-3.7-0.2-7.8-1.8-11.2
			c-0.1-0.1-0.2-0.1-0.3-0.1c-3.5,0.1-3.7,5.8-4.5,8.1c-0.9,2.5-1.9,5.1-2.7,7.8c0.2-0.9,0.3-1.8,0.4-2.6c1.8-11.7,3.2-23.3,4.4-35
			c0.5-5.3,1.1-10.5,1.1-15.8C42.5,360.6,43.3,357.4,45.1,354.3z"/>
		<path class="st2" d="M49.9,493.8c-1,4.3-0.9,9.2-1.5,13.6c-0.8,5.8-0.9,11.6-1.8,17.4c-1.8,12.5-4.9,25.3-3.2,38.1
			c0.8,5.9,0.4,12.2,0.7,18.2c0.3,6.5,0.3,13.1,0.3,19.6c0.1,13.1,0.1,26.2,1.3,39.2c0,0.2-0.4,0.5-0.5,0.3
			c-1.5-12.8-1.9-25.7-2.4-38.5c-0.2-6.4-0.5-12.8-0.9-19.3c-0.4-6.5-0.3-13.1-1.3-19.6c-1.8-11.9,1.9-23.8,3.6-35.4
			c0.9-6,1.6-11.9,2.2-17.9c0.3-3.3,1.5-6.5,1.6-9.8c0.1-2,0.5-3.8,1.2-5.7C49.3,493.8,50,493.4,49.9,493.8z"/>
		<path class="st2" d="M47.6,706.7c0.7,4.3,1.5,8.5,2.1,12.8c0.6,4.4,2.1,8.9,2,13.3c-0.2,8.5,0.6,17,0.6,25.5
			c0,3.8,0.2,7.6,0.6,11.4c-0.5,0.4-1,0.8-1.6,1.1c-0.4-3.8-0.7-7.6-0.8-11.5c-0.1-8-0.8-16.2-0.6-24.2c0.3-9.4-2.3-18.8-2.8-28.2
			C47.1,706.9,47.6,706.5,47.6,706.7z"/>
		<path class="st2" d="M47.3,210.4c0.5,16.3-0.2,32.4-2.4,48.6c-0.5,3.7-0.9,7.4-1.4,11.1c-0.6,4.1-1.9,8.1-2.5,12.3
			c-1,8.3-3.5,16.5-3.9,24.9c0,0.1-0.2,0.3-0.2,0.2c0.1-6.8,1.8-13.4,2.5-20.1c0.8-8.2,2.6-16.2,3.5-24.4c0.9-8.4,1.9-16.8,2.9-25.2
			c1.1-9,1.1-18,1.3-27.1C46.9,210.5,47.3,210.2,47.3,210.4z"/>
		<path class="st2" d="M51.9,163c0.5,9.6,1.6,19.3,1.5,28.9c0,8.5-1.4,17-1.4,25.5c0,0.2-0.5,0.6-0.5,0.3
			c-0.8-8.3-0.1-16.3-0.2-24.6c0-4.9,1-10.1,0.3-14.8c-0.7-4.7-0.6-10.1-0.5-14.8C51.1,163.2,51.9,162.6,51.9,163z"/>
	</g>
</g>
<g>
</g>
<g>
</g>
<g>
</g>
<g>
</g>
<g>
</g>
<g>
</g>
</svg>
